<svg width="1728" height="1440" viewBox="0 0 1728 1440" fill="none" xmlns="http://www.w3.org/2000/svg">
<mask id="mask0_2_8851" style="mask-type:alpha" maskUnits="userSpaceOnUse" x="144" y="0" width="1440" height="1440">
<rect width="1440" height="1440" transform="translate(144)" fill="url(#paint0_radial_2_8851)"/>
</mask>
<g mask="url(#mask0_2_8851)">
<g clip-path="url(#clip0_2_8851)">
<mask id="path-3-inside-1_2_8851" fill="white">
<path d="M96 0H192V96H96V0Z"/>
</mask>
<path d="M192 96V97H193V96H192ZM191 0V96H193V0H191ZM192 95H96V97H192V95Z" fill="#D0D5DD" mask="url(#path-3-inside-1_2_8851)"/>
<mask id="path-5-inside-2_2_8851" fill="white">
<path d="M192 0H288V96H192V0Z"/>
</mask>
<path d="M288 96V97H289V96H288ZM287 0V96H289V0H287ZM288 95H192V97H288V95Z" fill="#D0D5DD" mask="url(#path-5-inside-2_2_8851)"/>
<mask id="path-7-inside-3_2_8851" fill="white">
<path d="M288 0H384V96H288V0Z"/>
</mask>
<path d="M384 96V97H385V96H384ZM383 0V96H385V0H383ZM384 95H288V97H384V95Z" fill="#D0D5DD" mask="url(#path-7-inside-3_2_8851)"/>
<mask id="path-9-inside-4_2_8851" fill="white">
<path d="M384 0H480V96H384V0Z"/>
</mask>
<path d="M480 96V97H481V96H480ZM479 0V96H481V0H479ZM480 95H384V97H480V95Z" fill="#D0D5DD" mask="url(#path-9-inside-4_2_8851)"/>
<mask id="path-11-inside-5_2_8851" fill="white">
<path d="M480 0H576V96H480V0Z"/>
</mask>
<path d="M576 96V97H577V96H576ZM575 0V96H577V0H575ZM576 95H480V97H576V95Z" fill="#D0D5DD" mask="url(#path-11-inside-5_2_8851)"/>
<mask id="path-13-inside-6_2_8851" fill="white">
<path d="M576 0H672V96H576V0Z"/>
</mask>
<path d="M672 96V97H673V96H672ZM671 0V96H673V0H671ZM672 95H576V97H672V95Z" fill="#D0D5DD" mask="url(#path-13-inside-6_2_8851)"/>
<mask id="path-15-inside-7_2_8851" fill="white">
<path d="M672 0H768V96H672V0Z"/>
</mask>
<path d="M768 96V97H769V96H768ZM767 0V96H769V0H767ZM768 95H672V97H768V95Z" fill="#D0D5DD" mask="url(#path-15-inside-7_2_8851)"/>
<mask id="path-17-inside-8_2_8851" fill="white">
<path d="M768 0H864V96H768V0Z"/>
</mask>
<path d="M864 96V97H865V96H864ZM863 0V96H865V0H863ZM864 95H768V97H864V95Z" fill="#D0D5DD" mask="url(#path-17-inside-8_2_8851)"/>
<mask id="path-19-inside-9_2_8851" fill="white">
<path d="M864 0H960V96H864V0Z"/>
</mask>
<path d="M960 96V97H961V96H960ZM959 0V96H961V0H959ZM960 95H864V97H960V95Z" fill="#D0D5DD" mask="url(#path-19-inside-9_2_8851)"/>
<mask id="path-21-inside-10_2_8851" fill="white">
<path d="M960 0H1056V96H960V0Z"/>
</mask>
<path d="M1056 96V97H1057V96H1056ZM1055 0V96H1057V0H1055ZM1056 95H960V97H1056V95Z" fill="#D0D5DD" mask="url(#path-21-inside-10_2_8851)"/>
<mask id="path-23-inside-11_2_8851" fill="white">
<path d="M1056 0H1152V96H1056V0Z"/>
</mask>
<path d="M1152 96V97H1153V96H1152ZM1151 0V96H1153V0H1151ZM1152 95H1056V97H1152V95Z" fill="#D0D5DD" mask="url(#path-23-inside-11_2_8851)"/>
<mask id="path-25-inside-12_2_8851" fill="white">
<path d="M1152 0H1248V96H1152V0Z"/>
</mask>
<path d="M1248 96V97H1249V96H1248ZM1247 0V96H1249V0H1247ZM1248 95H1152V97H1248V95Z" fill="#D0D5DD" mask="url(#path-25-inside-12_2_8851)"/>
<mask id="path-27-inside-13_2_8851" fill="white">
<path d="M1248 0H1344V96H1248V0Z"/>
</mask>
<path d="M1344 96V97H1345V96H1344ZM1343 0V96H1345V0H1343ZM1344 95H1248V97H1344V95Z" fill="#D0D5DD" mask="url(#path-27-inside-13_2_8851)"/>
<mask id="path-29-inside-14_2_8851" fill="white">
<path d="M1344 0H1440V96H1344V0Z"/>
</mask>
<path d="M1440 96V97H1441V96H1440ZM1439 0V96H1441V0H1439ZM1440 95H1344V97H1440V95Z" fill="#D0D5DD" mask="url(#path-29-inside-14_2_8851)"/>
<mask id="path-31-inside-15_2_8851" fill="white">
<path d="M1440 0H1536V96H1440V0Z"/>
</mask>
<path d="M1536 96V97H1537V96H1536ZM1535 0V96H1537V0H1535ZM1536 95H1440V97H1536V95Z" fill="#D0D5DD" mask="url(#path-31-inside-15_2_8851)"/>
<mask id="path-33-inside-16_2_8851" fill="white">
<path d="M1536 0H1632V96H1536V0Z"/>
</mask>
<path d="M1632 96V97H1633V96H1632ZM1631 0V96H1633V0H1631ZM1632 95H1536V97H1632V95Z" fill="#D0D5DD" mask="url(#path-33-inside-16_2_8851)"/>
<mask id="path-35-inside-17_2_8851" fill="white">
<path d="M96 96H192V192H96V96Z"/>
</mask>
<path d="M192 192V193H193V192H192ZM191 96V192H193V96H191ZM192 191H96V193H192V191Z" fill="#D0D5DD" mask="url(#path-35-inside-17_2_8851)"/>
<mask id="path-37-inside-18_2_8851" fill="white">
<path d="M192 96H288V192H192V96Z"/>
</mask>
<path d="M288 192V193H289V192H288ZM287 96V192H289V96H287ZM288 191H192V193H288V191Z" fill="#D0D5DD" mask="url(#path-37-inside-18_2_8851)"/>
<mask id="path-39-inside-19_2_8851" fill="white">
<path d="M288 96H384V192H288V96Z"/>
</mask>
<path d="M384 192V193H385V192H384ZM383 96V192H385V96H383ZM384 191H288V193H384V191Z" fill="#D0D5DD" mask="url(#path-39-inside-19_2_8851)"/>
<mask id="path-41-inside-20_2_8851" fill="white">
<path d="M384 96H480V192H384V96Z"/>
</mask>
<path d="M384 96H480V192H384V96Z" fill="#F2F4F7"/>
<path d="M480 192V193H481V192H480ZM479 96V192H481V96H479ZM480 191H384V193H480V191Z" fill="#D0D5DD" mask="url(#path-41-inside-20_2_8851)"/>
<mask id="path-43-inside-21_2_8851" fill="white">
<path d="M480 96H576V192H480V96Z"/>
</mask>
<path d="M576 192V193H577V192H576ZM575 96V192H577V96H575ZM576 191H480V193H576V191Z" fill="#D0D5DD" mask="url(#path-43-inside-21_2_8851)"/>
<mask id="path-45-inside-22_2_8851" fill="white">
<path d="M576 96H672V192H576V96Z"/>
</mask>
<path d="M672 192V193H673V192H672ZM671 96V192H673V96H671ZM672 191H576V193H672V191Z" fill="#D0D5DD" mask="url(#path-45-inside-22_2_8851)"/>
<mask id="path-47-inside-23_2_8851" fill="white">
<path d="M672 96H768V192H672V96Z"/>
</mask>
<path d="M768 192V193H769V192H768ZM767 96V192H769V96H767ZM768 191H672V193H768V191Z" fill="#D0D5DD" mask="url(#path-47-inside-23_2_8851)"/>
<mask id="path-49-inside-24_2_8851" fill="white">
<path d="M768 96H864V192H768V96Z"/>
</mask>
<path d="M864 192V193H865V192H864ZM863 96V192H865V96H863ZM864 191H768V193H864V191Z" fill="#D0D5DD" mask="url(#path-49-inside-24_2_8851)"/>
<mask id="path-51-inside-25_2_8851" fill="white">
<path d="M864 96H960V192H864V96Z"/>
</mask>
<path d="M960 192V193H961V192H960ZM959 96V192H961V96H959ZM960 191H864V193H960V191Z" fill="#D0D5DD" mask="url(#path-51-inside-25_2_8851)"/>
<mask id="path-53-inside-26_2_8851" fill="white">
<path d="M960 96H1056V192H960V96Z"/>
</mask>
<path d="M1056 192V193H1057V192H1056ZM1055 96V192H1057V96H1055ZM1056 191H960V193H1056V191Z" fill="#D0D5DD" mask="url(#path-53-inside-26_2_8851)"/>
<mask id="path-55-inside-27_2_8851" fill="white">
<path d="M1056 96H1152V192H1056V96Z"/>
</mask>
<path d="M1152 192V193H1153V192H1152ZM1151 96V192H1153V96H1151ZM1152 191H1056V193H1152V191Z" fill="#D0D5DD" mask="url(#path-55-inside-27_2_8851)"/>
<mask id="path-57-inside-28_2_8851" fill="white">
<path d="M1152 96H1248V192H1152V96Z"/>
</mask>
<path d="M1248 192V193H1249V192H1248ZM1247 96V192H1249V96H1247ZM1248 191H1152V193H1248V191Z" fill="#D0D5DD" mask="url(#path-57-inside-28_2_8851)"/>
<mask id="path-59-inside-29_2_8851" fill="white">
<path d="M1248 96H1344V192H1248V96Z"/>
</mask>
<path d="M1248 96H1344V192H1248V96Z" fill="#F2F4F7"/>
<path d="M1344 192V193H1345V192H1344ZM1343 96V192H1345V96H1343ZM1344 191H1248V193H1344V191Z" fill="#D0D5DD" mask="url(#path-59-inside-29_2_8851)"/>
<mask id="path-61-inside-30_2_8851" fill="white">
<path d="M1344 96H1440V192H1344V96Z"/>
</mask>
<path d="M1440 192V193H1441V192H1440ZM1439 96V192H1441V96H1439ZM1440 191H1344V193H1440V191Z" fill="#D0D5DD" mask="url(#path-61-inside-30_2_8851)"/>
<mask id="path-63-inside-31_2_8851" fill="white">
<path d="M1440 96H1536V192H1440V96Z"/>
</mask>
<path d="M1536 192V193H1537V192H1536ZM1535 96V192H1537V96H1535ZM1536 191H1440V193H1536V191Z" fill="#D0D5DD" mask="url(#path-63-inside-31_2_8851)"/>
<mask id="path-65-inside-32_2_8851" fill="white">
<path d="M1536 96H1632V192H1536V96Z"/>
</mask>
<path d="M1632 192V193H1633V192H1632ZM1631 96V192H1633V96H1631ZM1632 191H1536V193H1632V191Z" fill="#D0D5DD" mask="url(#path-65-inside-32_2_8851)"/>
<mask id="path-67-inside-33_2_8851" fill="white">
<path d="M96 192H192V288H96V192Z"/>
</mask>
<path d="M192 288V289H193V288H192ZM191 192V288H193V192H191ZM192 287H96V289H192V287Z" fill="#D0D5DD" mask="url(#path-67-inside-33_2_8851)"/>
<mask id="path-69-inside-34_2_8851" fill="white">
<path d="M192 192H288V288H192V192Z"/>
</mask>
<path d="M288 288V289H289V288H288ZM287 192V288H289V192H287ZM288 287H192V289H288V287Z" fill="#D0D5DD" mask="url(#path-69-inside-34_2_8851)"/>
<mask id="path-71-inside-35_2_8851" fill="white">
<path d="M288 192H384V288H288V192Z"/>
</mask>
<path d="M384 288V289H385V288H384ZM383 192V288H385V192H383ZM384 287H288V289H384V287Z" fill="#D0D5DD" mask="url(#path-71-inside-35_2_8851)"/>
<mask id="path-73-inside-36_2_8851" fill="white">
<path d="M384 192H480V288H384V192Z"/>
</mask>
<path d="M480 288V289H481V288H480ZM479 192V288H481V192H479ZM480 287H384V289H480V287Z" fill="#D0D5DD" mask="url(#path-73-inside-36_2_8851)"/>
<mask id="path-75-inside-37_2_8851" fill="white">
<path d="M480 192H576V288H480V192Z"/>
</mask>
<path d="M576 288V289H577V288H576ZM575 192V288H577V192H575ZM576 287H480V289H576V287Z" fill="#D0D5DD" mask="url(#path-75-inside-37_2_8851)"/>
<mask id="path-77-inside-38_2_8851" fill="white">
<path d="M576 192H672V288H576V192Z"/>
</mask>
<path d="M576 192H672V288H576V192Z" fill="#F2F4F7"/>
<path d="M672 288V289H673V288H672ZM671 192V288H673V192H671ZM672 287H576V289H672V287Z" fill="#D0D5DD" mask="url(#path-77-inside-38_2_8851)"/>
<mask id="path-79-inside-39_2_8851" fill="white">
<path d="M672 192H768V288H672V192Z"/>
</mask>
<path d="M768 288V289H769V288H768ZM767 192V288H769V192H767ZM768 287H672V289H768V287Z" fill="#D0D5DD" mask="url(#path-79-inside-39_2_8851)"/>
<mask id="path-81-inside-40_2_8851" fill="white">
<path d="M768 192H864V288H768V192Z"/>
</mask>
<path d="M864 288V289H865V288H864ZM863 192V288H865V192H863ZM864 287H768V289H864V287Z" fill="#D0D5DD" mask="url(#path-81-inside-40_2_8851)"/>
<mask id="path-83-inside-41_2_8851" fill="white">
<path d="M864 192H960V288H864V192Z"/>
</mask>
<path d="M960 288V289H961V288H960ZM959 192V288H961V192H959ZM960 287H864V289H960V287Z" fill="#D0D5DD" mask="url(#path-83-inside-41_2_8851)"/>
<mask id="path-85-inside-42_2_8851" fill="white">
<path d="M960 192H1056V288H960V192Z"/>
</mask>
<path d="M960 192H1056V288H960V192Z" fill="#F2F4F7"/>
<path d="M1056 288V289H1057V288H1056ZM1055 192V288H1057V192H1055ZM1056 287H960V289H1056V287Z" fill="#D0D5DD" mask="url(#path-85-inside-42_2_8851)"/>
<mask id="path-87-inside-43_2_8851" fill="white">
<path d="M1056 192H1152V288H1056V192Z"/>
</mask>
<path d="M1152 288V289H1153V288H1152ZM1151 192V288H1153V192H1151ZM1152 287H1056V289H1152V287Z" fill="#D0D5DD" mask="url(#path-87-inside-43_2_8851)"/>
<mask id="path-89-inside-44_2_8851" fill="white">
<path d="M1152 192H1248V288H1152V192Z"/>
</mask>
<path d="M1248 288V289H1249V288H1248ZM1247 192V288H1249V192H1247ZM1248 287H1152V289H1248V287Z" fill="#D0D5DD" mask="url(#path-89-inside-44_2_8851)"/>
<mask id="path-91-inside-45_2_8851" fill="white">
<path d="M1248 192H1344V288H1248V192Z"/>
</mask>
<path d="M1344 288V289H1345V288H1344ZM1343 192V288H1345V192H1343ZM1344 287H1248V289H1344V287Z" fill="#D0D5DD" mask="url(#path-91-inside-45_2_8851)"/>
<mask id="path-93-inside-46_2_8851" fill="white">
<path d="M1344 192H1440V288H1344V192Z"/>
</mask>
<path d="M1440 288V289H1441V288H1440ZM1439 192V288H1441V192H1439ZM1440 287H1344V289H1440V287Z" fill="#D0D5DD" mask="url(#path-93-inside-46_2_8851)"/>
<mask id="path-95-inside-47_2_8851" fill="white">
<path d="M1440 192H1536V288H1440V192Z"/>
</mask>
<path d="M1536 288V289H1537V288H1536ZM1535 192V288H1537V192H1535ZM1536 287H1440V289H1536V287Z" fill="#D0D5DD" mask="url(#path-95-inside-47_2_8851)"/>
<mask id="path-97-inside-48_2_8851" fill="white">
<path d="M1536 192H1632V288H1536V192Z"/>
</mask>
<path d="M1632 288V289H1633V288H1632ZM1631 192V288H1633V192H1631ZM1632 287H1536V289H1632V287Z" fill="#D0D5DD" mask="url(#path-97-inside-48_2_8851)"/>
<mask id="path-99-inside-49_2_8851" fill="white">
<path d="M96 288H192V384H96V288Z"/>
</mask>
<path d="M96 288H192V384H96V288Z" fill="#F2F4F7"/>
<path d="M192 384V385H193V384H192ZM191 288V384H193V288H191ZM192 383H96V385H192V383Z" fill="#D0D5DD" mask="url(#path-99-inside-49_2_8851)"/>
<mask id="path-101-inside-50_2_8851" fill="white">
<path d="M192 288H288V384H192V288Z"/>
</mask>
<path d="M288 384V385H289V384H288ZM287 288V384H289V288H287ZM288 383H192V385H288V383Z" fill="#D0D5DD" mask="url(#path-101-inside-50_2_8851)"/>
<mask id="path-103-inside-51_2_8851" fill="white">
<path d="M288 288H384V384H288V288Z"/>
</mask>
<path d="M384 384V385H385V384H384ZM383 288V384H385V288H383ZM384 383H288V385H384V383Z" fill="#D0D5DD" mask="url(#path-103-inside-51_2_8851)"/>
<mask id="path-105-inside-52_2_8851" fill="white">
<path d="M384 288H480V384H384V288Z"/>
</mask>
<path d="M480 384V385H481V384H480ZM479 288V384H481V288H479ZM480 383H384V385H480V383Z" fill="#D0D5DD" mask="url(#path-105-inside-52_2_8851)"/>
<mask id="path-107-inside-53_2_8851" fill="white">
<path d="M480 288H576V384H480V288Z"/>
</mask>
<path d="M576 384V385H577V384H576ZM575 288V384H577V288H575ZM576 383H480V385H576V383Z" fill="#D0D5DD" mask="url(#path-107-inside-53_2_8851)"/>
<mask id="path-109-inside-54_2_8851" fill="white">
<path d="M576 288H672V384H576V288Z"/>
</mask>
<path d="M672 384V385H673V384H672ZM671 288V384H673V288H671ZM672 383H576V385H672V383Z" fill="#D0D5DD" mask="url(#path-109-inside-54_2_8851)"/>
<mask id="path-111-inside-55_2_8851" fill="white">
<path d="M672 288H768V384H672V288Z"/>
</mask>
<path d="M768 384V385H769V384H768ZM767 288V384H769V288H767ZM768 383H672V385H768V383Z" fill="#D0D5DD" mask="url(#path-111-inside-55_2_8851)"/>
<mask id="path-113-inside-56_2_8851" fill="white">
<path d="M768 288H864V384H768V288Z"/>
</mask>
<path d="M864 384V385H865V384H864ZM863 288V384H865V288H863ZM864 383H768V385H864V383Z" fill="#D0D5DD" mask="url(#path-113-inside-56_2_8851)"/>
<mask id="path-115-inside-57_2_8851" fill="white">
<path d="M864 288H960V384H864V288Z"/>
</mask>
<path d="M960 384V385H961V384H960ZM959 288V384H961V288H959ZM960 383H864V385H960V383Z" fill="#D0D5DD" mask="url(#path-115-inside-57_2_8851)"/>
<mask id="path-117-inside-58_2_8851" fill="white">
<path d="M960 288H1056V384H960V288Z"/>
</mask>
<path d="M1056 384V385H1057V384H1056ZM1055 288V384H1057V288H1055ZM1056 383H960V385H1056V383Z" fill="#D0D5DD" mask="url(#path-117-inside-58_2_8851)"/>
<mask id="path-119-inside-59_2_8851" fill="white">
<path d="M1056 288H1152V384H1056V288Z"/>
</mask>
<path d="M1152 384V385H1153V384H1152ZM1151 288V384H1153V288H1151ZM1152 383H1056V385H1152V383Z" fill="#D0D5DD" mask="url(#path-119-inside-59_2_8851)"/>
<mask id="path-121-inside-60_2_8851" fill="white">
<path d="M1152 288H1248V384H1152V288Z"/>
</mask>
<path d="M1248 384V385H1249V384H1248ZM1247 288V384H1249V288H1247ZM1248 383H1152V385H1248V383Z" fill="#D0D5DD" mask="url(#path-121-inside-60_2_8851)"/>
<mask id="path-123-inside-61_2_8851" fill="white">
<path d="M1248 288H1344V384H1248V288Z"/>
</mask>
<path d="M1248 288H1344V384H1248V288Z" fill="#F2F4F7"/>
<path d="M1344 384V385H1345V384H1344ZM1343 288V384H1345V288H1343ZM1344 383H1248V385H1344V383Z" fill="#D0D5DD" mask="url(#path-123-inside-61_2_8851)"/>
<mask id="path-125-inside-62_2_8851" fill="white">
<path d="M1344 288H1440V384H1344V288Z"/>
</mask>
<path d="M1440 384V385H1441V384H1440ZM1439 288V384H1441V288H1439ZM1440 383H1344V385H1440V383Z" fill="#D0D5DD" mask="url(#path-125-inside-62_2_8851)"/>
<mask id="path-127-inside-63_2_8851" fill="white">
<path d="M1440 288H1536V384H1440V288Z"/>
</mask>
<path d="M1536 384V385H1537V384H1536ZM1535 288V384H1537V288H1535ZM1536 383H1440V385H1536V383Z" fill="#D0D5DD" mask="url(#path-127-inside-63_2_8851)"/>
<mask id="path-129-inside-64_2_8851" fill="white">
<path d="M1536 288H1632V384H1536V288Z"/>
</mask>
<path d="M1632 384V385H1633V384H1632ZM1631 288V384H1633V288H1631ZM1632 383H1536V385H1632V383Z" fill="#D0D5DD" mask="url(#path-129-inside-64_2_8851)"/>
<mask id="path-131-inside-65_2_8851" fill="white">
<path d="M96 384H192V480H96V384Z"/>
</mask>
<path d="M192 480V481H193V480H192ZM191 384V480H193V384H191ZM192 479H96V481H192V479Z" fill="#D0D5DD" mask="url(#path-131-inside-65_2_8851)"/>
<mask id="path-133-inside-66_2_8851" fill="white">
<path d="M192 384H288V480H192V384Z"/>
</mask>
<path d="M288 480V481H289V480H288ZM287 384V480H289V384H287ZM288 479H192V481H288V479Z" fill="#D0D5DD" mask="url(#path-133-inside-66_2_8851)"/>
<mask id="path-135-inside-67_2_8851" fill="white">
<path d="M288 384H384V480H288V384Z"/>
</mask>
<path d="M384 480V481H385V480H384ZM383 384V480H385V384H383ZM384 479H288V481H384V479Z" fill="#D0D5DD" mask="url(#path-135-inside-67_2_8851)"/>
<mask id="path-137-inside-68_2_8851" fill="white">
<path d="M384 384H480V480H384V384Z"/>
</mask>
<path d="M480 480V481H481V480H480ZM479 384V480H481V384H479ZM480 479H384V481H480V479Z" fill="#D0D5DD" mask="url(#path-137-inside-68_2_8851)"/>
<mask id="path-139-inside-69_2_8851" fill="white">
<path d="M480 384H576V480H480V384Z"/>
</mask>
<path d="M576 480V481H577V480H576ZM575 384V480H577V384H575ZM576 479H480V481H576V479Z" fill="#D0D5DD" mask="url(#path-139-inside-69_2_8851)"/>
<mask id="path-141-inside-70_2_8851" fill="white">
<path d="M576 384H672V480H576V384Z"/>
</mask>
<path d="M672 480V481H673V480H672ZM671 384V480H673V384H671ZM672 479H576V481H672V479Z" fill="#D0D5DD" mask="url(#path-141-inside-70_2_8851)"/>
<mask id="path-143-inside-71_2_8851" fill="white">
<path d="M672 384H768V480H672V384Z"/>
</mask>
<path d="M672 384H768V480H672V384Z" fill="#F2F4F7"/>
<path d="M768 480V481H769V480H768ZM767 384V480H769V384H767ZM768 479H672V481H768V479Z" fill="#D0D5DD" mask="url(#path-143-inside-71_2_8851)"/>
<mask id="path-145-inside-72_2_8851" fill="white">
<path d="M768 384H864V480H768V384Z"/>
</mask>
<path d="M864 480V481H865V480H864ZM863 384V480H865V384H863ZM864 479H768V481H864V479Z" fill="#D0D5DD" mask="url(#path-145-inside-72_2_8851)"/>
<mask id="path-147-inside-73_2_8851" fill="white">
<path d="M864 384H960V480H864V384Z"/>
</mask>
<path d="M960 480V481H961V480H960ZM959 384V480H961V384H959ZM960 479H864V481H960V479Z" fill="#D0D5DD" mask="url(#path-147-inside-73_2_8851)"/>
<mask id="path-149-inside-74_2_8851" fill="white">
<path d="M960 384H1056V480H960V384Z"/>
</mask>
<path d="M1056 480V481H1057V480H1056ZM1055 384V480H1057V384H1055ZM1056 479H960V481H1056V479Z" fill="#D0D5DD" mask="url(#path-149-inside-74_2_8851)"/>
<mask id="path-151-inside-75_2_8851" fill="white">
<path d="M1056 384H1152V480H1056V384Z"/>
</mask>
<path d="M1152 480V481H1153V480H1152ZM1151 384V480H1153V384H1151ZM1152 479H1056V481H1152V479Z" fill="#D0D5DD" mask="url(#path-151-inside-75_2_8851)"/>
<mask id="path-153-inside-76_2_8851" fill="white">
<path d="M1152 384H1248V480H1152V384Z"/>
</mask>
<path d="M1248 480V481H1249V480H1248ZM1247 384V480H1249V384H1247ZM1248 479H1152V481H1248V479Z" fill="#D0D5DD" mask="url(#path-153-inside-76_2_8851)"/>
<mask id="path-155-inside-77_2_8851" fill="white">
<path d="M1248 384H1344V480H1248V384Z"/>
</mask>
<path d="M1344 480V481H1345V480H1344ZM1343 384V480H1345V384H1343ZM1344 479H1248V481H1344V479Z" fill="#D0D5DD" mask="url(#path-155-inside-77_2_8851)"/>
<mask id="path-157-inside-78_2_8851" fill="white">
<path d="M1344 384H1440V480H1344V384Z"/>
</mask>
<path d="M1440 480V481H1441V480H1440ZM1439 384V480H1441V384H1439ZM1440 479H1344V481H1440V479Z" fill="#D0D5DD" mask="url(#path-157-inside-78_2_8851)"/>
<mask id="path-159-inside-79_2_8851" fill="white">
<path d="M1440 384H1536V480H1440V384Z"/>
</mask>
<path d="M1536 480V481H1537V480H1536ZM1535 384V480H1537V384H1535ZM1536 479H1440V481H1536V479Z" fill="#D0D5DD" mask="url(#path-159-inside-79_2_8851)"/>
<mask id="path-161-inside-80_2_8851" fill="white">
<path d="M1536 384H1632V480H1536V384Z"/>
</mask>
<path d="M1632 480V481H1633V480H1632ZM1631 384V480H1633V384H1631ZM1632 479H1536V481H1632V479Z" fill="#D0D5DD" mask="url(#path-161-inside-80_2_8851)"/>
<mask id="path-163-inside-81_2_8851" fill="white">
<path d="M96 480H192V576H96V480Z"/>
</mask>
<path d="M192 576V577H193V576H192ZM191 480V576H193V480H191ZM192 575H96V577H192V575Z" fill="#D0D5DD" mask="url(#path-163-inside-81_2_8851)"/>
<mask id="path-165-inside-82_2_8851" fill="white">
<path d="M192 480H288V576H192V480Z"/>
</mask>
<path d="M288 576V577H289V576H288ZM287 480V576H289V480H287ZM288 575H192V577H288V575Z" fill="#D0D5DD" mask="url(#path-165-inside-82_2_8851)"/>
<mask id="path-167-inside-83_2_8851" fill="white">
<path d="M288 480H384V576H288V480Z"/>
</mask>
<path d="M384 576V577H385V576H384ZM383 480V576H385V480H383ZM384 575H288V577H384V575Z" fill="#D0D5DD" mask="url(#path-167-inside-83_2_8851)"/>
<mask id="path-169-inside-84_2_8851" fill="white">
<path d="M384 480H480V576H384V480Z"/>
</mask>
<path d="M384 480H480V576H384V480Z" fill="#F2F4F7"/>
<path d="M480 576V577H481V576H480ZM479 480V576H481V480H479ZM480 575H384V577H480V575Z" fill="#D0D5DD" mask="url(#path-169-inside-84_2_8851)"/>
<mask id="path-171-inside-85_2_8851" fill="white">
<path d="M480 480H576V576H480V480Z"/>
</mask>
<path d="M576 576V577H577V576H576ZM575 480V576H577V480H575ZM576 575H480V577H576V575Z" fill="#D0D5DD" mask="url(#path-171-inside-85_2_8851)"/>
<mask id="path-173-inside-86_2_8851" fill="white">
<path d="M576 480H672V576H576V480Z"/>
</mask>
<path d="M672 576V577H673V576H672ZM671 480V576H673V480H671ZM672 575H576V577H672V575Z" fill="#D0D5DD" mask="url(#path-173-inside-86_2_8851)"/>
<mask id="path-175-inside-87_2_8851" fill="white">
<path d="M672 480H768V576H672V480Z"/>
</mask>
<path d="M768 576V577H769V576H768ZM767 480V576H769V480H767ZM768 575H672V577H768V575Z" fill="#D0D5DD" mask="url(#path-175-inside-87_2_8851)"/>
<mask id="path-177-inside-88_2_8851" fill="white">
<path d="M768 480H864V576H768V480Z"/>
</mask>
<path d="M864 576V577H865V576H864ZM863 480V576H865V480H863ZM864 575H768V577H864V575Z" fill="#D0D5DD" mask="url(#path-177-inside-88_2_8851)"/>
<mask id="path-179-inside-89_2_8851" fill="white">
<path d="M864 480H960V576H864V480Z"/>
</mask>
<path d="M960 576V577H961V576H960ZM959 480V576H961V480H959ZM960 575H864V577H960V575Z" fill="#D0D5DD" mask="url(#path-179-inside-89_2_8851)"/>
<mask id="path-181-inside-90_2_8851" fill="white">
<path d="M960 480H1056V576H960V480Z"/>
</mask>
<path d="M960 480H1056V576H960V480Z" fill="#F2F4F7"/>
<path d="M1056 576V577H1057V576H1056ZM1055 480V576H1057V480H1055ZM1056 575H960V577H1056V575Z" fill="#D0D5DD" mask="url(#path-181-inside-90_2_8851)"/>
<mask id="path-183-inside-91_2_8851" fill="white">
<path d="M1056 480H1152V576H1056V480Z"/>
</mask>
<path d="M1152 576V577H1153V576H1152ZM1151 480V576H1153V480H1151ZM1152 575H1056V577H1152V575Z" fill="#D0D5DD" mask="url(#path-183-inside-91_2_8851)"/>
<mask id="path-185-inside-92_2_8851" fill="white">
<path d="M1152 480H1248V576H1152V480Z"/>
</mask>
<path d="M1248 576V577H1249V576H1248ZM1247 480V576H1249V480H1247ZM1248 575H1152V577H1248V575Z" fill="#D0D5DD" mask="url(#path-185-inside-92_2_8851)"/>
<mask id="path-187-inside-93_2_8851" fill="white">
<path d="M1248 480H1344V576H1248V480Z"/>
</mask>
<path d="M1344 576V577H1345V576H1344ZM1343 480V576H1345V480H1343ZM1344 575H1248V577H1344V575Z" fill="#D0D5DD" mask="url(#path-187-inside-93_2_8851)"/>
<mask id="path-189-inside-94_2_8851" fill="white">
<path d="M1344 480H1440V576H1344V480Z"/>
</mask>
<path d="M1440 576V577H1441V576H1440ZM1439 480V576H1441V480H1439ZM1440 575H1344V577H1440V575Z" fill="#D0D5DD" mask="url(#path-189-inside-94_2_8851)"/>
<mask id="path-191-inside-95_2_8851" fill="white">
<path d="M1440 480H1536V576H1440V480Z"/>
</mask>
<path d="M1536 576V577H1537V576H1536ZM1535 480V576H1537V480H1535ZM1536 575H1440V577H1536V575Z" fill="#D0D5DD" mask="url(#path-191-inside-95_2_8851)"/>
<mask id="path-193-inside-96_2_8851" fill="white">
<path d="M1536 480H1632V576H1536V480Z"/>
</mask>
<path d="M1632 576V577H1633V576H1632ZM1631 480V576H1633V480H1631ZM1632 575H1536V577H1632V575Z" fill="#D0D5DD" mask="url(#path-193-inside-96_2_8851)"/>
<mask id="path-195-inside-97_2_8851" fill="white">
<path d="M96 576H192V672H96V576Z"/>
</mask>
<path d="M192 672V673H193V672H192ZM191 576V672H193V576H191ZM192 671H96V673H192V671Z" fill="#D0D5DD" mask="url(#path-195-inside-97_2_8851)"/>
<mask id="path-197-inside-98_2_8851" fill="white">
<path d="M192 576H288V672H192V576Z"/>
</mask>
<path d="M192 576H288V672H192V576Z" fill="#F2F4F7"/>
<path d="M288 672V673H289V672H288ZM287 576V672H289V576H287ZM288 671H192V673H288V671Z" fill="#D0D5DD" mask="url(#path-197-inside-98_2_8851)"/>
<mask id="path-199-inside-99_2_8851" fill="white">
<path d="M288 576H384V672H288V576Z"/>
</mask>
<path d="M384 672V673H385V672H384ZM383 576V672H385V576H383ZM384 671H288V673H384V671Z" fill="#D0D5DD" mask="url(#path-199-inside-99_2_8851)"/>
<mask id="path-201-inside-100_2_8851" fill="white">
<path d="M384 576H480V672H384V576Z"/>
</mask>
<path d="M480 672V673H481V672H480ZM479 576V672H481V576H479ZM480 671H384V673H480V671Z" fill="#D0D5DD" mask="url(#path-201-inside-100_2_8851)"/>
<mask id="path-203-inside-101_2_8851" fill="white">
<path d="M480 576H576V672H480V576Z"/>
</mask>
<path d="M576 672V673H577V672H576ZM575 576V672H577V576H575ZM576 671H480V673H576V671Z" fill="#D0D5DD" mask="url(#path-203-inside-101_2_8851)"/>
<mask id="path-205-inside-102_2_8851" fill="white">
<path d="M576 576H672V672H576V576Z"/>
</mask>
<path d="M672 672V673H673V672H672ZM671 576V672H673V576H671ZM672 671H576V673H672V671Z" fill="#D0D5DD" mask="url(#path-205-inside-102_2_8851)"/>
<mask id="path-207-inside-103_2_8851" fill="white">
<path d="M672 576H768V672H672V576Z"/>
</mask>
<path d="M768 672V673H769V672H768ZM767 576V672H769V576H767ZM768 671H672V673H768V671Z" fill="#D0D5DD" mask="url(#path-207-inside-103_2_8851)"/>
<mask id="path-209-inside-104_2_8851" fill="white">
<path d="M768 576H864V672H768V576Z"/>
</mask>
<path d="M864 672V673H865V672H864ZM863 576V672H865V576H863ZM864 671H768V673H864V671Z" fill="#D0D5DD" mask="url(#path-209-inside-104_2_8851)"/>
<mask id="path-211-inside-105_2_8851" fill="white">
<path d="M864 576H960V672H864V576Z"/>
</mask>
<path d="M960 672V673H961V672H960ZM959 576V672H961V576H959ZM960 671H864V673H960V671Z" fill="#D0D5DD" mask="url(#path-211-inside-105_2_8851)"/>
<mask id="path-213-inside-106_2_8851" fill="white">
<path d="M960 576H1056V672H960V576Z"/>
</mask>
<path d="M1056 672V673H1057V672H1056ZM1055 576V672H1057V576H1055ZM1056 671H960V673H1056V671Z" fill="#D0D5DD" mask="url(#path-213-inside-106_2_8851)"/>
<mask id="path-215-inside-107_2_8851" fill="white">
<path d="M1056 576H1152V672H1056V576Z"/>
</mask>
<path d="M1152 672V673H1153V672H1152ZM1151 576V672H1153V576H1151ZM1152 671H1056V673H1152V671Z" fill="#D0D5DD" mask="url(#path-215-inside-107_2_8851)"/>
<mask id="path-217-inside-108_2_8851" fill="white">
<path d="M1152 576H1248V672H1152V576Z"/>
</mask>
<path d="M1248 672V673H1249V672H1248ZM1247 576V672H1249V576H1247ZM1248 671H1152V673H1248V671Z" fill="#D0D5DD" mask="url(#path-217-inside-108_2_8851)"/>
<mask id="path-219-inside-109_2_8851" fill="white">
<path d="M1248 576H1344V672H1248V576Z"/>
</mask>
<path d="M1344 672V673H1345V672H1344ZM1343 576V672H1345V576H1343ZM1344 671H1248V673H1344V671Z" fill="#D0D5DD" mask="url(#path-219-inside-109_2_8851)"/>
<mask id="path-221-inside-110_2_8851" fill="white">
<path d="M1344 576H1440V672H1344V576Z"/>
</mask>
<path d="M1440 672V673H1441V672H1440ZM1439 576V672H1441V576H1439ZM1440 671H1344V673H1440V671Z" fill="#D0D5DD" mask="url(#path-221-inside-110_2_8851)"/>
<mask id="path-223-inside-111_2_8851" fill="white">
<path d="M1440 576H1536V672H1440V576Z"/>
</mask>
<path d="M1440 576H1536V672H1440V576Z" fill="#F2F4F7"/>
<path d="M1536 672V673H1537V672H1536ZM1535 576V672H1537V576H1535ZM1536 671H1440V673H1536V671Z" fill="#D0D5DD" mask="url(#path-223-inside-111_2_8851)"/>
<mask id="path-225-inside-112_2_8851" fill="white">
<path d="M1536 576H1632V672H1536V576Z"/>
</mask>
<path d="M1632 672V673H1633V672H1632ZM1631 576V672H1633V576H1631ZM1632 671H1536V673H1632V671Z" fill="#D0D5DD" mask="url(#path-225-inside-112_2_8851)"/>
<mask id="path-227-inside-113_2_8851" fill="white">
<path d="M96 672H192V768H96V672Z"/>
</mask>
<path d="M192 768V769H193V768H192ZM191 672V768H193V672H191ZM192 767H96V769H192V767Z" fill="#D0D5DD" mask="url(#path-227-inside-113_2_8851)"/>
<mask id="path-229-inside-114_2_8851" fill="white">
<path d="M192 672H288V768H192V672Z"/>
</mask>
<path d="M288 768V769H289V768H288ZM287 672V768H289V672H287ZM288 767H192V769H288V767Z" fill="#D0D5DD" mask="url(#path-229-inside-114_2_8851)"/>
<mask id="path-231-inside-115_2_8851" fill="white">
<path d="M288 672H384V768H288V672Z"/>
</mask>
<path d="M384 768V769H385V768H384ZM383 672V768H385V672H383ZM384 767H288V769H384V767Z" fill="#D0D5DD" mask="url(#path-231-inside-115_2_8851)"/>
<mask id="path-233-inside-116_2_8851" fill="white">
<path d="M384 672H480V768H384V672Z"/>
</mask>
<path d="M480 768V769H481V768H480ZM479 672V768H481V672H479ZM480 767H384V769H480V767Z" fill="#D0D5DD" mask="url(#path-233-inside-116_2_8851)"/>
<mask id="path-235-inside-117_2_8851" fill="white">
<path d="M480 672H576V768H480V672Z"/>
</mask>
<path d="M576 768V769H577V768H576ZM575 672V768H577V672H575ZM576 767H480V769H576V767Z" fill="#D0D5DD" mask="url(#path-235-inside-117_2_8851)"/>
<mask id="path-237-inside-118_2_8851" fill="white">
<path d="M576 672H672V768H576V672Z"/>
</mask>
<path d="M672 768V769H673V768H672ZM671 672V768H673V672H671ZM672 767H576V769H672V767Z" fill="#D0D5DD" mask="url(#path-237-inside-118_2_8851)"/>
<mask id="path-239-inside-119_2_8851" fill="white">
<path d="M672 672H768V768H672V672Z"/>
</mask>
<path d="M672 672H768V768H672V672Z" fill="#F2F4F7"/>
<path d="M768 768V769H769V768H768ZM767 672V768H769V672H767ZM768 767H672V769H768V767Z" fill="#D0D5DD" mask="url(#path-239-inside-119_2_8851)"/>
<mask id="path-241-inside-120_2_8851" fill="white">
<path d="M768 672H864V768H768V672Z"/>
</mask>
<path d="M864 768V769H865V768H864ZM863 672V768H865V672H863ZM864 767H768V769H864V767Z" fill="#D0D5DD" mask="url(#path-241-inside-120_2_8851)"/>
<mask id="path-243-inside-121_2_8851" fill="white">
<path d="M864 672H960V768H864V672Z"/>
</mask>
<path d="M960 768V769H961V768H960ZM959 672V768H961V672H959ZM960 767H864V769H960V767Z" fill="#D0D5DD" mask="url(#path-243-inside-121_2_8851)"/>
<mask id="path-245-inside-122_2_8851" fill="white">
<path d="M960 672H1056V768H960V672Z"/>
</mask>
<path d="M1056 768V769H1057V768H1056ZM1055 672V768H1057V672H1055ZM1056 767H960V769H1056V767Z" fill="#D0D5DD" mask="url(#path-245-inside-122_2_8851)"/>
<mask id="path-247-inside-123_2_8851" fill="white">
<path d="M1056 672H1152V768H1056V672Z"/>
</mask>
<path d="M1152 768V769H1153V768H1152ZM1151 672V768H1153V672H1151ZM1152 767H1056V769H1152V767Z" fill="#D0D5DD" mask="url(#path-247-inside-123_2_8851)"/>
<mask id="path-249-inside-124_2_8851" fill="white">
<path d="M1152 672H1248V768H1152V672Z"/>
</mask>
<path d="M1248 768V769H1249V768H1248ZM1247 672V768H1249V672H1247ZM1248 767H1152V769H1248V767Z" fill="#D0D5DD" mask="url(#path-249-inside-124_2_8851)"/>
<mask id="path-251-inside-125_2_8851" fill="white">
<path d="M1248 672H1344V768H1248V672Z"/>
</mask>
<path d="M1248 672H1344V768H1248V672Z" fill="#F2F4F7"/>
<path d="M1344 768V769H1345V768H1344ZM1343 672V768H1345V672H1343ZM1344 767H1248V769H1344V767Z" fill="#D0D5DD" mask="url(#path-251-inside-125_2_8851)"/>
<mask id="path-253-inside-126_2_8851" fill="white">
<path d="M1344 672H1440V768H1344V672Z"/>
</mask>
<path d="M1440 768V769H1441V768H1440ZM1439 672V768H1441V672H1439ZM1440 767H1344V769H1440V767Z" fill="#D0D5DD" mask="url(#path-253-inside-126_2_8851)"/>
<mask id="path-255-inside-127_2_8851" fill="white">
<path d="M1440 672H1536V768H1440V672Z"/>
</mask>
<path d="M1536 768V769H1537V768H1536ZM1535 672V768H1537V672H1535ZM1536 767H1440V769H1536V767Z" fill="#D0D5DD" mask="url(#path-255-inside-127_2_8851)"/>
<mask id="path-257-inside-128_2_8851" fill="white">
<path d="M1536 672H1632V768H1536V672Z"/>
</mask>
<path d="M1632 768V769H1633V768H1632ZM1631 672V768H1633V672H1631ZM1632 767H1536V769H1632V767Z" fill="#D0D5DD" mask="url(#path-257-inside-128_2_8851)"/>
<mask id="path-259-inside-129_2_8851" fill="white">
<path d="M96 768H192V864H96V768Z"/>
</mask>
<path d="M192 864V865H193V864H192ZM191 768V864H193V768H191ZM192 863H96V865H192V863Z" fill="#D0D5DD" mask="url(#path-259-inside-129_2_8851)"/>
<mask id="path-261-inside-130_2_8851" fill="white">
<path d="M192 768H288V864H192V768Z"/>
</mask>
<path d="M288 864V865H289V864H288ZM287 768V864H289V768H287ZM288 863H192V865H288V863Z" fill="#D0D5DD" mask="url(#path-261-inside-130_2_8851)"/>
<mask id="path-263-inside-131_2_8851" fill="white">
<path d="M288 768H384V864H288V768Z"/>
</mask>
<path d="M384 864V865H385V864H384ZM383 768V864H385V768H383ZM384 863H288V865H384V863Z" fill="#D0D5DD" mask="url(#path-263-inside-131_2_8851)"/>
<mask id="path-265-inside-132_2_8851" fill="white">
<path d="M384 768H480V864H384V768Z"/>
</mask>
<path d="M384 768H480V864H384V768Z" fill="#F2F4F7"/>
<path d="M480 864V865H481V864H480ZM479 768V864H481V768H479ZM480 863H384V865H480V863Z" fill="#D0D5DD" mask="url(#path-265-inside-132_2_8851)"/>
<mask id="path-267-inside-133_2_8851" fill="white">
<path d="M480 768H576V864H480V768Z"/>
</mask>
<path d="M576 864V865H577V864H576ZM575 768V864H577V768H575ZM576 863H480V865H576V863Z" fill="#D0D5DD" mask="url(#path-267-inside-133_2_8851)"/>
<mask id="path-269-inside-134_2_8851" fill="white">
<path d="M576 768H672V864H576V768Z"/>
</mask>
<path d="M672 864V865H673V864H672ZM671 768V864H673V768H671ZM672 863H576V865H672V863Z" fill="#D0D5DD" mask="url(#path-269-inside-134_2_8851)"/>
<mask id="path-271-inside-135_2_8851" fill="white">
<path d="M672 768H768V864H672V768Z"/>
</mask>
<path d="M768 864V865H769V864H768ZM767 768V864H769V768H767ZM768 863H672V865H768V863Z" fill="#D0D5DD" mask="url(#path-271-inside-135_2_8851)"/>
<mask id="path-273-inside-136_2_8851" fill="white">
<path d="M768 768H864V864H768V768Z"/>
</mask>
<path d="M864 864V865H865V864H864ZM863 768V864H865V768H863ZM864 863H768V865H864V863Z" fill="#D0D5DD" mask="url(#path-273-inside-136_2_8851)"/>
<mask id="path-275-inside-137_2_8851" fill="white">
<path d="M864 768H960V864H864V768Z"/>
</mask>
<path d="M960 864V865H961V864H960ZM959 768V864H961V768H959ZM960 863H864V865H960V863Z" fill="#D0D5DD" mask="url(#path-275-inside-137_2_8851)"/>
<mask id="path-277-inside-138_2_8851" fill="white">
<path d="M960 768H1056V864H960V768Z"/>
</mask>
<path d="M960 768H1056V864H960V768Z" fill="#F2F4F7"/>
<path d="M1056 864V865H1057V864H1056ZM1055 768V864H1057V768H1055ZM1056 863H960V865H1056V863Z" fill="#D0D5DD" mask="url(#path-277-inside-138_2_8851)"/>
<mask id="path-279-inside-139_2_8851" fill="white">
<path d="M1056 768H1152V864H1056V768Z"/>
</mask>
<path d="M1152 864V865H1153V864H1152ZM1151 768V864H1153V768H1151ZM1152 863H1056V865H1152V863Z" fill="#D0D5DD" mask="url(#path-279-inside-139_2_8851)"/>
<mask id="path-281-inside-140_2_8851" fill="white">
<path d="M1152 768H1248V864H1152V768Z"/>
</mask>
<path d="M1248 864V865H1249V864H1248ZM1247 768V864H1249V768H1247ZM1248 863H1152V865H1248V863Z" fill="#D0D5DD" mask="url(#path-281-inside-140_2_8851)"/>
<mask id="path-283-inside-141_2_8851" fill="white">
<path d="M1248 768H1344V864H1248V768Z"/>
</mask>
<path d="M1344 864V865H1345V864H1344ZM1343 768V864H1345V768H1343ZM1344 863H1248V865H1344V863Z" fill="#D0D5DD" mask="url(#path-283-inside-141_2_8851)"/>
<mask id="path-285-inside-142_2_8851" fill="white">
<path d="M1344 768H1440V864H1344V768Z"/>
</mask>
<path d="M1440 864V865H1441V864H1440ZM1439 768V864H1441V768H1439ZM1440 863H1344V865H1440V863Z" fill="#D0D5DD" mask="url(#path-285-inside-142_2_8851)"/>
<mask id="path-287-inside-143_2_8851" fill="white">
<path d="M1440 768H1536V864H1440V768Z"/>
</mask>
<path d="M1536 864V865H1537V864H1536ZM1535 768V864H1537V768H1535ZM1536 863H1440V865H1536V863Z" fill="#D0D5DD" mask="url(#path-287-inside-143_2_8851)"/>
<mask id="path-289-inside-144_2_8851" fill="white">
<path d="M1536 768H1632V864H1536V768Z"/>
</mask>
<path d="M1632 864V865H1633V864H1632ZM1631 768V864H1633V768H1631ZM1632 863H1536V865H1632V863Z" fill="#D0D5DD" mask="url(#path-289-inside-144_2_8851)"/>
<mask id="path-291-inside-145_2_8851" fill="white">
<path d="M96 864H192V960H96V864Z"/>
</mask>
<path d="M192 960V961H193V960H192ZM191 864V960H193V864H191ZM192 959H96V961H192V959Z" fill="#D0D5DD" mask="url(#path-291-inside-145_2_8851)"/>
<mask id="path-293-inside-146_2_8851" fill="white">
<path d="M192 864H288V960H192V864Z"/>
</mask>
<path d="M288 960V961H289V960H288ZM287 864V960H289V864H287ZM288 959H192V961H288V959Z" fill="#D0D5DD" mask="url(#path-293-inside-146_2_8851)"/>
<mask id="path-295-inside-147_2_8851" fill="white">
<path d="M288 864H384V960H288V864Z"/>
</mask>
<path d="M384 960V961H385V960H384ZM383 864V960H385V864H383ZM384 959H288V961H384V959Z" fill="#D0D5DD" mask="url(#path-295-inside-147_2_8851)"/>
<mask id="path-297-inside-148_2_8851" fill="white">
<path d="M384 864H480V960H384V864Z"/>
</mask>
<path d="M480 960V961H481V960H480ZM479 864V960H481V864H479ZM480 959H384V961H480V959Z" fill="#D0D5DD" mask="url(#path-297-inside-148_2_8851)"/>
<mask id="path-299-inside-149_2_8851" fill="white">
<path d="M480 864H576V960H480V864Z"/>
</mask>
<path d="M576 960V961H577V960H576ZM575 864V960H577V864H575ZM576 959H480V961H576V959Z" fill="#D0D5DD" mask="url(#path-299-inside-149_2_8851)"/>
<mask id="path-301-inside-150_2_8851" fill="white">
<path d="M576 864H672V960H576V864Z"/>
</mask>
<path d="M672 960V961H673V960H672ZM671 864V960H673V864H671ZM672 959H576V961H672V959Z" fill="#D0D5DD" mask="url(#path-301-inside-150_2_8851)"/>
<mask id="path-303-inside-151_2_8851" fill="white">
<path d="M672 864H768V960H672V864Z"/>
</mask>
<path d="M768 960V961H769V960H768ZM767 864V960H769V864H767ZM768 959H672V961H768V959Z" fill="#D0D5DD" mask="url(#path-303-inside-151_2_8851)"/>
<mask id="path-305-inside-152_2_8851" fill="white">
<path d="M768 864H864V960H768V864Z"/>
</mask>
<path d="M864 960V961H865V960H864ZM863 864V960H865V864H863ZM864 959H768V961H864V959Z" fill="#D0D5DD" mask="url(#path-305-inside-152_2_8851)"/>
<mask id="path-307-inside-153_2_8851" fill="white">
<path d="M864 864H960V960H864V864Z"/>
</mask>
<path d="M960 960V961H961V960H960ZM959 864V960H961V864H959ZM960 959H864V961H960V959Z" fill="#D0D5DD" mask="url(#path-307-inside-153_2_8851)"/>
<mask id="path-309-inside-154_2_8851" fill="white">
<path d="M960 864H1056V960H960V864Z"/>
</mask>
<path d="M1056 960V961H1057V960H1056ZM1055 864V960H1057V864H1055ZM1056 959H960V961H1056V959Z" fill="#D0D5DD" mask="url(#path-309-inside-154_2_8851)"/>
<mask id="path-311-inside-155_2_8851" fill="white">
<path d="M1056 864H1152V960H1056V864Z"/>
</mask>
<path d="M1152 960V961H1153V960H1152ZM1151 864V960H1153V864H1151ZM1152 959H1056V961H1152V959Z" fill="#D0D5DD" mask="url(#path-311-inside-155_2_8851)"/>
<mask id="path-313-inside-156_2_8851" fill="white">
<path d="M1152 864H1248V960H1152V864Z"/>
</mask>
<path d="M1248 960V961H1249V960H1248ZM1247 864V960H1249V864H1247ZM1248 959H1152V961H1248V959Z" fill="#D0D5DD" mask="url(#path-313-inside-156_2_8851)"/>
<mask id="path-315-inside-157_2_8851" fill="white">
<path d="M1248 864H1344V960H1248V864Z"/>
</mask>
<path d="M1344 960V961H1345V960H1344ZM1343 864V960H1345V864H1343ZM1344 959H1248V961H1344V959Z" fill="#D0D5DD" mask="url(#path-315-inside-157_2_8851)"/>
<mask id="path-317-inside-158_2_8851" fill="white">
<path d="M1344 864H1440V960H1344V864Z"/>
</mask>
<path d="M1440 960V961H1441V960H1440ZM1439 864V960H1441V864H1439ZM1440 959H1344V961H1440V959Z" fill="#D0D5DD" mask="url(#path-317-inside-158_2_8851)"/>
<mask id="path-319-inside-159_2_8851" fill="white">
<path d="M1440 864H1536V960H1440V864Z"/>
</mask>
<path d="M1536 960V961H1537V960H1536ZM1535 864V960H1537V864H1535ZM1536 959H1440V961H1536V959Z" fill="#D0D5DD" mask="url(#path-319-inside-159_2_8851)"/>
<mask id="path-321-inside-160_2_8851" fill="white">
<path d="M1536 864H1632V960H1536V864Z"/>
</mask>
<path d="M1536 864H1632V960H1536V864Z" fill="#F2F4F7"/>
<path d="M1632 960V961H1633V960H1632ZM1631 864V960H1633V864H1631ZM1632 959H1536V961H1632V959Z" fill="#D0D5DD" mask="url(#path-321-inside-160_2_8851)"/>
<mask id="path-323-inside-161_2_8851" fill="white">
<path d="M96 960H192V1056H96V960Z"/>
</mask>
<path d="M192 1056V1057H193V1056H192ZM191 960V1056H193V960H191ZM192 1055H96V1057H192V1055Z" fill="#D0D5DD" mask="url(#path-323-inside-161_2_8851)"/>
<mask id="path-325-inside-162_2_8851" fill="white">
<path d="M192 960H288V1056H192V960Z"/>
</mask>
<path d="M288 1056V1057H289V1056H288ZM287 960V1056H289V960H287ZM288 1055H192V1057H288V1055Z" fill="#D0D5DD" mask="url(#path-325-inside-162_2_8851)"/>
<mask id="path-327-inside-163_2_8851" fill="white">
<path d="M288 960H384V1056H288V960Z"/>
</mask>
<path d="M384 1056V1057H385V1056H384ZM383 960V1056H385V960H383ZM384 1055H288V1057H384V1055Z" fill="#D0D5DD" mask="url(#path-327-inside-163_2_8851)"/>
<mask id="path-329-inside-164_2_8851" fill="white">
<path d="M384 960H480V1056H384V960Z"/>
</mask>
<path d="M480 1056V1057H481V1056H480ZM479 960V1056H481V960H479ZM480 1055H384V1057H480V1055Z" fill="#D0D5DD" mask="url(#path-329-inside-164_2_8851)"/>
<mask id="path-331-inside-165_2_8851" fill="white">
<path d="M480 960H576V1056H480V960Z"/>
</mask>
<path d="M480 960H576V1056H480V960Z" fill="#F2F4F7"/>
<path d="M576 1056V1057H577V1056H576ZM575 960V1056H577V960H575ZM576 1055H480V1057H576V1055Z" fill="#D0D5DD" mask="url(#path-331-inside-165_2_8851)"/>
<mask id="path-333-inside-166_2_8851" fill="white">
<path d="M576 960H672V1056H576V960Z"/>
</mask>
<path d="M672 1056V1057H673V1056H672ZM671 960V1056H673V960H671ZM672 1055H576V1057H672V1055Z" fill="#D0D5DD" mask="url(#path-333-inside-166_2_8851)"/>
<mask id="path-335-inside-167_2_8851" fill="white">
<path d="M672 960H768V1056H672V960Z"/>
</mask>
<path d="M768 1056V1057H769V1056H768ZM767 960V1056H769V960H767ZM768 1055H672V1057H768V1055Z" fill="#D0D5DD" mask="url(#path-335-inside-167_2_8851)"/>
<mask id="path-337-inside-168_2_8851" fill="white">
<path d="M768 960H864V1056H768V960Z"/>
</mask>
<path d="M864 1056V1057H865V1056H864ZM863 960V1056H865V960H863ZM864 1055H768V1057H864V1055Z" fill="#D0D5DD" mask="url(#path-337-inside-168_2_8851)"/>
<mask id="path-339-inside-169_2_8851" fill="white">
<path d="M864 960H960V1056H864V960Z"/>
</mask>
<path d="M864 960H960V1056H864V960Z" fill="#F2F4F7"/>
<path d="M960 1056V1057H961V1056H960ZM959 960V1056H961V960H959ZM960 1055H864V1057H960V1055Z" fill="#D0D5DD" mask="url(#path-339-inside-169_2_8851)"/>
<mask id="path-341-inside-170_2_8851" fill="white">
<path d="M960 960H1056V1056H960V960Z"/>
</mask>
<path d="M1056 1056V1057H1057V1056H1056ZM1055 960V1056H1057V960H1055ZM1056 1055H960V1057H1056V1055Z" fill="#D0D5DD" mask="url(#path-341-inside-170_2_8851)"/>
<mask id="path-343-inside-171_2_8851" fill="white">
<path d="M1056 960H1152V1056H1056V960Z"/>
</mask>
<path d="M1152 1056V1057H1153V1056H1152ZM1151 960V1056H1153V960H1151ZM1152 1055H1056V1057H1152V1055Z" fill="#D0D5DD" mask="url(#path-343-inside-171_2_8851)"/>
<mask id="path-345-inside-172_2_8851" fill="white">
<path d="M1152 960H1248V1056H1152V960Z"/>
</mask>
<path d="M1248 1056V1057H1249V1056H1248ZM1247 960V1056H1249V960H1247ZM1248 1055H1152V1057H1248V1055Z" fill="#D0D5DD" mask="url(#path-345-inside-172_2_8851)"/>
<mask id="path-347-inside-173_2_8851" fill="white">
<path d="M1248 960H1344V1056H1248V960Z"/>
</mask>
<path d="M1344 1056V1057H1345V1056H1344ZM1343 960V1056H1345V960H1343ZM1344 1055H1248V1057H1344V1055Z" fill="#D0D5DD" mask="url(#path-347-inside-173_2_8851)"/>
<mask id="path-349-inside-174_2_8851" fill="white">
<path d="M1344 960H1440V1056H1344V960Z"/>
</mask>
<path d="M1440 1056V1057H1441V1056H1440ZM1439 960V1056H1441V960H1439ZM1440 1055H1344V1057H1440V1055Z" fill="#D0D5DD" mask="url(#path-349-inside-174_2_8851)"/>
<mask id="path-351-inside-175_2_8851" fill="white">
<path d="M1440 960H1536V1056H1440V960Z"/>
</mask>
<path d="M1536 1056V1057H1537V1056H1536ZM1535 960V1056H1537V960H1535ZM1536 1055H1440V1057H1536V1055Z" fill="#D0D5DD" mask="url(#path-351-inside-175_2_8851)"/>
<mask id="path-353-inside-176_2_8851" fill="white">
<path d="M1536 960H1632V1056H1536V960Z"/>
</mask>
<path d="M1632 1056V1057H1633V1056H1632ZM1631 960V1056H1633V960H1631ZM1632 1055H1536V1057H1632V1055Z" fill="#D0D5DD" mask="url(#path-353-inside-176_2_8851)"/>
<mask id="path-355-inside-177_2_8851" fill="white">
<path d="M96 1056H192V1152H96V1056Z"/>
</mask>
<path d="M96 1056H192V1152H96V1056Z" fill="#F2F4F7"/>
<path d="M192 1152V1153H193V1152H192ZM191 1056V1152H193V1056H191ZM192 1151H96V1153H192V1151Z" fill="#D0D5DD" mask="url(#path-355-inside-177_2_8851)"/>
<mask id="path-357-inside-178_2_8851" fill="white">
<path d="M192 1056H288V1152H192V1056Z"/>
</mask>
<path d="M288 1152V1153H289V1152H288ZM287 1056V1152H289V1056H287ZM288 1151H192V1153H288V1151Z" fill="#D0D5DD" mask="url(#path-357-inside-178_2_8851)"/>
<mask id="path-359-inside-179_2_8851" fill="white">
<path d="M288 1056H384V1152H288V1056Z"/>
</mask>
<path d="M384 1152V1153H385V1152H384ZM383 1056V1152H385V1056H383ZM384 1151H288V1153H384V1151Z" fill="#D0D5DD" mask="url(#path-359-inside-179_2_8851)"/>
<mask id="path-361-inside-180_2_8851" fill="white">
<path d="M384 1056H480V1152H384V1056Z"/>
</mask>
<path d="M480 1152V1153H481V1152H480ZM479 1056V1152H481V1056H479ZM480 1151H384V1153H480V1151Z" fill="#D0D5DD" mask="url(#path-361-inside-180_2_8851)"/>
<mask id="path-363-inside-181_2_8851" fill="white">
<path d="M480 1056H576V1152H480V1056Z"/>
</mask>
<path d="M576 1152V1153H577V1152H576ZM575 1056V1152H577V1056H575ZM576 1151H480V1153H576V1151Z" fill="#D0D5DD" mask="url(#path-363-inside-181_2_8851)"/>
<mask id="path-365-inside-182_2_8851" fill="white">
<path d="M576 1056H672V1152H576V1056Z"/>
</mask>
<path d="M672 1152V1153H673V1152H672ZM671 1056V1152H673V1056H671ZM672 1151H576V1153H672V1151Z" fill="#D0D5DD" mask="url(#path-365-inside-182_2_8851)"/>
<mask id="path-367-inside-183_2_8851" fill="white">
<path d="M672 1056H768V1152H672V1056Z"/>
</mask>
<path d="M768 1152V1153H769V1152H768ZM767 1056V1152H769V1056H767ZM768 1151H672V1153H768V1151Z" fill="#D0D5DD" mask="url(#path-367-inside-183_2_8851)"/>
<mask id="path-369-inside-184_2_8851" fill="white">
<path d="M768 1056H864V1152H768V1056Z"/>
</mask>
<path d="M864 1152V1153H865V1152H864ZM863 1056V1152H865V1056H863ZM864 1151H768V1153H864V1151Z" fill="#D0D5DD" mask="url(#path-369-inside-184_2_8851)"/>
<mask id="path-371-inside-185_2_8851" fill="white">
<path d="M864 1056H960V1152H864V1056Z"/>
</mask>
<path d="M960 1152V1153H961V1152H960ZM959 1056V1152H961V1056H959ZM960 1151H864V1153H960V1151Z" fill="#D0D5DD" mask="url(#path-371-inside-185_2_8851)"/>
<mask id="path-373-inside-186_2_8851" fill="white">
<path d="M960 1056H1056V1152H960V1056Z"/>
</mask>
<path d="M1056 1152V1153H1057V1152H1056ZM1055 1056V1152H1057V1056H1055ZM1056 1151H960V1153H1056V1151Z" fill="#D0D5DD" mask="url(#path-373-inside-186_2_8851)"/>
<mask id="path-375-inside-187_2_8851" fill="white">
<path d="M1056 1056H1152V1152H1056V1056Z"/>
</mask>
<path d="M1152 1152V1153H1153V1152H1152ZM1151 1056V1152H1153V1056H1151ZM1152 1151H1056V1153H1152V1151Z" fill="#D0D5DD" mask="url(#path-375-inside-187_2_8851)"/>
<mask id="path-377-inside-188_2_8851" fill="white">
<path d="M1152 1056H1248V1152H1152V1056Z"/>
</mask>
<path d="M1248 1152V1153H1249V1152H1248ZM1247 1056V1152H1249V1056H1247ZM1248 1151H1152V1153H1248V1151Z" fill="#D0D5DD" mask="url(#path-377-inside-188_2_8851)"/>
<mask id="path-379-inside-189_2_8851" fill="white">
<path d="M1248 1056H1344V1152H1248V1056Z"/>
</mask>
<path d="M1248 1056H1344V1152H1248V1056Z" fill="#F2F4F7"/>
<path d="M1344 1152V1153H1345V1152H1344ZM1343 1056V1152H1345V1056H1343ZM1344 1151H1248V1153H1344V1151Z" fill="#D0D5DD" mask="url(#path-379-inside-189_2_8851)"/>
<mask id="path-381-inside-190_2_8851" fill="white">
<path d="M1344 1056H1440V1152H1344V1056Z"/>
</mask>
<path d="M1440 1152V1153H1441V1152H1440ZM1439 1056V1152H1441V1056H1439ZM1440 1151H1344V1153H1440V1151Z" fill="#D0D5DD" mask="url(#path-381-inside-190_2_8851)"/>
<mask id="path-383-inside-191_2_8851" fill="white">
<path d="M1440 1056H1536V1152H1440V1056Z"/>
</mask>
<path d="M1536 1152V1153H1537V1152H1536ZM1535 1056V1152H1537V1056H1535ZM1536 1151H1440V1153H1536V1151Z" fill="#D0D5DD" mask="url(#path-383-inside-191_2_8851)"/>
<mask id="path-385-inside-192_2_8851" fill="white">
<path d="M1536 1056H1632V1152H1536V1056Z"/>
</mask>
<path d="M1632 1152V1153H1633V1152H1632ZM1631 1056V1152H1633V1056H1631ZM1632 1151H1536V1153H1632V1151Z" fill="#D0D5DD" mask="url(#path-385-inside-192_2_8851)"/>
<mask id="path-387-inside-193_2_8851" fill="white">
<path d="M96 1152H192V1248H96V1152Z"/>
</mask>
<path d="M192 1248V1249H193V1248H192ZM191 1152V1248H193V1152H191ZM192 1247H96V1249H192V1247Z" fill="#D0D5DD" mask="url(#path-387-inside-193_2_8851)"/>
<mask id="path-389-inside-194_2_8851" fill="white">
<path d="M192 1152H288V1248H192V1152Z"/>
</mask>
<path d="M288 1248V1249H289V1248H288ZM287 1152V1248H289V1152H287ZM288 1247H192V1249H288V1247Z" fill="#D0D5DD" mask="url(#path-389-inside-194_2_8851)"/>
<mask id="path-391-inside-195_2_8851" fill="white">
<path d="M288 1152H384V1248H288V1152Z"/>
</mask>
<path d="M384 1248V1249H385V1248H384ZM383 1152V1248H385V1152H383ZM384 1247H288V1249H384V1247Z" fill="#D0D5DD" mask="url(#path-391-inside-195_2_8851)"/>
<mask id="path-393-inside-196_2_8851" fill="white">
<path d="M384 1152H480V1248H384V1152Z"/>
</mask>
<path d="M480 1248V1249H481V1248H480ZM479 1152V1248H481V1152H479ZM480 1247H384V1249H480V1247Z" fill="#D0D5DD" mask="url(#path-393-inside-196_2_8851)"/>
<mask id="path-395-inside-197_2_8851" fill="white">
<path d="M480 1152H576V1248H480V1152Z"/>
</mask>
<path d="M576 1248V1249H577V1248H576ZM575 1152V1248H577V1152H575ZM576 1247H480V1249H576V1247Z" fill="#D0D5DD" mask="url(#path-395-inside-197_2_8851)"/>
<mask id="path-397-inside-198_2_8851" fill="white">
<path d="M576 1152H672V1248H576V1152Z"/>
</mask>
<path d="M672 1248V1249H673V1248H672ZM671 1152V1248H673V1152H671ZM672 1247H576V1249H672V1247Z" fill="#D0D5DD" mask="url(#path-397-inside-198_2_8851)"/>
<mask id="path-399-inside-199_2_8851" fill="white">
<path d="M672 1152H768V1248H672V1152Z"/>
</mask>
<path d="M672 1152H768V1248H672V1152Z" fill="#F2F4F7"/>
<path d="M768 1248V1249H769V1248H768ZM767 1152V1248H769V1152H767ZM768 1247H672V1249H768V1247Z" fill="#D0D5DD" mask="url(#path-399-inside-199_2_8851)"/>
<mask id="path-401-inside-200_2_8851" fill="white">
<path d="M768 1152H864V1248H768V1152Z"/>
</mask>
<path d="M864 1248V1249H865V1248H864ZM863 1152V1248H865V1152H863ZM864 1247H768V1249H864V1247Z" fill="#D0D5DD" mask="url(#path-401-inside-200_2_8851)"/>
<mask id="path-403-inside-201_2_8851" fill="white">
<path d="M864 1152H960V1248H864V1152Z"/>
</mask>
<path d="M960 1248V1249H961V1248H960ZM959 1152V1248H961V1152H959ZM960 1247H864V1249H960V1247Z" fill="#D0D5DD" mask="url(#path-403-inside-201_2_8851)"/>
<mask id="path-405-inside-202_2_8851" fill="white">
<path d="M960 1152H1056V1248H960V1152Z"/>
</mask>
<path d="M1056 1248V1249H1057V1248H1056ZM1055 1152V1248H1057V1152H1055ZM1056 1247H960V1249H1056V1247Z" fill="#D0D5DD" mask="url(#path-405-inside-202_2_8851)"/>
<mask id="path-407-inside-203_2_8851" fill="white">
<path d="M1056 1152H1152V1248H1056V1152Z"/>
</mask>
<path d="M1152 1248V1249H1153V1248H1152ZM1151 1152V1248H1153V1152H1151ZM1152 1247H1056V1249H1152V1247Z" fill="#D0D5DD" mask="url(#path-407-inside-203_2_8851)"/>
<mask id="path-409-inside-204_2_8851" fill="white">
<path d="M1152 1152H1248V1248H1152V1152Z"/>
</mask>
<path d="M1248 1248V1249H1249V1248H1248ZM1247 1152V1248H1249V1152H1247ZM1248 1247H1152V1249H1248V1247Z" fill="#D0D5DD" mask="url(#path-409-inside-204_2_8851)"/>
<mask id="path-411-inside-205_2_8851" fill="white">
<path d="M1248 1152H1344V1248H1248V1152Z"/>
</mask>
<path d="M1344 1248V1249H1345V1248H1344ZM1343 1152V1248H1345V1152H1343ZM1344 1247H1248V1249H1344V1247Z" fill="#D0D5DD" mask="url(#path-411-inside-205_2_8851)"/>
<mask id="path-413-inside-206_2_8851" fill="white">
<path d="M1344 1152H1440V1248H1344V1152Z"/>
</mask>
<path d="M1440 1248V1249H1441V1248H1440ZM1439 1152V1248H1441V1152H1439ZM1440 1247H1344V1249H1440V1247Z" fill="#D0D5DD" mask="url(#path-413-inside-206_2_8851)"/>
<mask id="path-415-inside-207_2_8851" fill="white">
<path d="M1440 1152H1536V1248H1440V1152Z"/>
</mask>
<path d="M1536 1248V1249H1537V1248H1536ZM1535 1152V1248H1537V1152H1535ZM1536 1247H1440V1249H1536V1247Z" fill="#D0D5DD" mask="url(#path-415-inside-207_2_8851)"/>
<mask id="path-417-inside-208_2_8851" fill="white">
<path d="M1536 1152H1632V1248H1536V1152Z"/>
</mask>
<path d="M1632 1248V1249H1633V1248H1632ZM1631 1152V1248H1633V1152H1631ZM1632 1247H1536V1249H1632V1247Z" fill="#D0D5DD" mask="url(#path-417-inside-208_2_8851)"/>
<mask id="path-419-inside-209_2_8851" fill="white">
<path d="M96 1248H192V1344H96V1248Z"/>
</mask>
<path d="M192 1344V1345H193V1344H192ZM191 1248V1344H193V1248H191ZM192 1343H96V1345H192V1343Z" fill="#D0D5DD" mask="url(#path-419-inside-209_2_8851)"/>
<mask id="path-421-inside-210_2_8851" fill="white">
<path d="M192 1248H288V1344H192V1248Z"/>
</mask>
<path d="M288 1344V1345H289V1344H288ZM287 1248V1344H289V1248H287ZM288 1343H192V1345H288V1343Z" fill="#D0D5DD" mask="url(#path-421-inside-210_2_8851)"/>
<mask id="path-423-inside-211_2_8851" fill="white">
<path d="M288 1248H384V1344H288V1248Z"/>
</mask>
<path d="M384 1344V1345H385V1344H384ZM383 1248V1344H385V1248H383ZM384 1343H288V1345H384V1343Z" fill="#D0D5DD" mask="url(#path-423-inside-211_2_8851)"/>
<mask id="path-425-inside-212_2_8851" fill="white">
<path d="M384 1248H480V1344H384V1248Z"/>
</mask>
<path d="M384 1248H480V1344H384V1248Z" fill="#F2F4F7"/>
<path d="M480 1344V1345H481V1344H480ZM479 1248V1344H481V1248H479ZM480 1343H384V1345H480V1343Z" fill="#D0D5DD" mask="url(#path-425-inside-212_2_8851)"/>
<mask id="path-427-inside-213_2_8851" fill="white">
<path d="M480 1248H576V1344H480V1248Z"/>
</mask>
<path d="M576 1344V1345H577V1344H576ZM575 1248V1344H577V1248H575ZM576 1343H480V1345H576V1343Z" fill="#D0D5DD" mask="url(#path-427-inside-213_2_8851)"/>
<mask id="path-429-inside-214_2_8851" fill="white">
<path d="M576 1248H672V1344H576V1248Z"/>
</mask>
<path d="M672 1344V1345H673V1344H672ZM671 1248V1344H673V1248H671ZM672 1343H576V1345H672V1343Z" fill="#D0D5DD" mask="url(#path-429-inside-214_2_8851)"/>
<mask id="path-431-inside-215_2_8851" fill="white">
<path d="M672 1248H768V1344H672V1248Z"/>
</mask>
<path d="M768 1344V1345H769V1344H768ZM767 1248V1344H769V1248H767ZM768 1343H672V1345H768V1343Z" fill="#D0D5DD" mask="url(#path-431-inside-215_2_8851)"/>
<mask id="path-433-inside-216_2_8851" fill="white">
<path d="M768 1248H864V1344H768V1248Z"/>
</mask>
<path d="M864 1344V1345H865V1344H864ZM863 1248V1344H865V1248H863ZM864 1343H768V1345H864V1343Z" fill="#D0D5DD" mask="url(#path-433-inside-216_2_8851)"/>
<mask id="path-435-inside-217_2_8851" fill="white">
<path d="M864 1248H960V1344H864V1248Z"/>
</mask>
<path d="M960 1344V1345H961V1344H960ZM959 1248V1344H961V1248H959ZM960 1343H864V1345H960V1343Z" fill="#D0D5DD" mask="url(#path-435-inside-217_2_8851)"/>
<mask id="path-437-inside-218_2_8851" fill="white">
<path d="M960 1248H1056V1344H960V1248Z"/>
</mask>
<path d="M960 1248H1056V1344H960V1248Z" fill="#F2F4F7"/>
<path d="M1056 1344V1345H1057V1344H1056ZM1055 1248V1344H1057V1248H1055ZM1056 1343H960V1345H1056V1343Z" fill="#D0D5DD" mask="url(#path-437-inside-218_2_8851)"/>
<mask id="path-439-inside-219_2_8851" fill="white">
<path d="M1056 1248H1152V1344H1056V1248Z"/>
</mask>
<path d="M1152 1344V1345H1153V1344H1152ZM1151 1248V1344H1153V1248H1151ZM1152 1343H1056V1345H1152V1343Z" fill="#D0D5DD" mask="url(#path-439-inside-219_2_8851)"/>
<mask id="path-441-inside-220_2_8851" fill="white">
<path d="M1152 1248H1248V1344H1152V1248Z"/>
</mask>
<path d="M1248 1344V1345H1249V1344H1248ZM1247 1248V1344H1249V1248H1247ZM1248 1343H1152V1345H1248V1343Z" fill="#D0D5DD" mask="url(#path-441-inside-220_2_8851)"/>
<mask id="path-443-inside-221_2_8851" fill="white">
<path d="M1248 1248H1344V1344H1248V1248Z"/>
</mask>
<path d="M1344 1344V1345H1345V1344H1344ZM1343 1248V1344H1345V1248H1343ZM1344 1343H1248V1345H1344V1343Z" fill="#D0D5DD" mask="url(#path-443-inside-221_2_8851)"/>
<mask id="path-445-inside-222_2_8851" fill="white">
<path d="M1344 1248H1440V1344H1344V1248Z"/>
</mask>
<path d="M1440 1344V1345H1441V1344H1440ZM1439 1248V1344H1441V1248H1439ZM1440 1343H1344V1345H1440V1343Z" fill="#D0D5DD" mask="url(#path-445-inside-222_2_8851)"/>
<mask id="path-447-inside-223_2_8851" fill="white">
<path d="M1440 1248H1536V1344H1440V1248Z"/>
</mask>
<path d="M1536 1344V1345H1537V1344H1536ZM1535 1248V1344H1537V1248H1535ZM1536 1343H1440V1345H1536V1343Z" fill="#D0D5DD" mask="url(#path-447-inside-223_2_8851)"/>
<mask id="path-449-inside-224_2_8851" fill="white">
<path d="M1536 1248H1632V1344H1536V1248Z"/>
</mask>
<path d="M1632 1344V1345H1633V1344H1632ZM1631 1248V1344H1633V1248H1631ZM1632 1343H1536V1345H1632V1343Z" fill="#D0D5DD" mask="url(#path-449-inside-224_2_8851)"/>
<mask id="path-451-inside-225_2_8851" fill="white">
<path d="M96 1344H192V1440H96V1344Z"/>
</mask>
<path d="M192 1440V1441H193V1440H192ZM191 1344V1440H193V1344H191ZM192 1439H96V1441H192V1439Z" fill="#D0D5DD" mask="url(#path-451-inside-225_2_8851)"/>
<mask id="path-453-inside-226_2_8851" fill="white">
<path d="M192 1344H288V1440H192V1344Z"/>
</mask>
<path d="M192 1344H288V1440H192V1344Z" fill="#F2F4F7"/>
<path d="M288 1440V1441H289V1440H288ZM287 1344V1440H289V1344H287ZM288 1439H192V1441H288V1439Z" fill="#D0D5DD" mask="url(#path-453-inside-226_2_8851)"/>
<mask id="path-455-inside-227_2_8851" fill="white">
<path d="M288 1344H384V1440H288V1344Z"/>
</mask>
<path d="M384 1440V1441H385V1440H384ZM383 1344V1440H385V1344H383ZM384 1439H288V1441H384V1439Z" fill="#D0D5DD" mask="url(#path-455-inside-227_2_8851)"/>
<mask id="path-457-inside-228_2_8851" fill="white">
<path d="M384 1344H480V1440H384V1344Z"/>
</mask>
<path d="M480 1440V1441H481V1440H480ZM479 1344V1440H481V1344H479ZM480 1439H384V1441H480V1439Z" fill="#D0D5DD" mask="url(#path-457-inside-228_2_8851)"/>
<mask id="path-459-inside-229_2_8851" fill="white">
<path d="M480 1344H576V1440H480V1344Z"/>
</mask>
<path d="M576 1440V1441H577V1440H576ZM575 1344V1440H577V1344H575ZM576 1439H480V1441H576V1439Z" fill="#D0D5DD" mask="url(#path-459-inside-229_2_8851)"/>
<mask id="path-461-inside-230_2_8851" fill="white">
<path d="M576 1344H672V1440H576V1344Z"/>
</mask>
<path d="M672 1440V1441H673V1440H672ZM671 1344V1440H673V1344H671ZM672 1439H576V1441H672V1439Z" fill="#D0D5DD" mask="url(#path-461-inside-230_2_8851)"/>
<mask id="path-463-inside-231_2_8851" fill="white">
<path d="M672 1344H768V1440H672V1344Z"/>
</mask>
<path d="M768 1440V1441H769V1440H768ZM767 1344V1440H769V1344H767ZM768 1439H672V1441H768V1439Z" fill="#D0D5DD" mask="url(#path-463-inside-231_2_8851)"/>
<mask id="path-465-inside-232_2_8851" fill="white">
<path d="M768 1344H864V1440H768V1344Z"/>
</mask>
<path d="M864 1440V1441H865V1440H864ZM863 1344V1440H865V1344H863ZM864 1439H768V1441H864V1439Z" fill="#D0D5DD" mask="url(#path-465-inside-232_2_8851)"/>
<mask id="path-467-inside-233_2_8851" fill="white">
<path d="M864 1344H960V1440H864V1344Z"/>
</mask>
<path d="M960 1440V1441H961V1440H960ZM959 1344V1440H961V1344H959ZM960 1439H864V1441H960V1439Z" fill="#D0D5DD" mask="url(#path-467-inside-233_2_8851)"/>
<mask id="path-469-inside-234_2_8851" fill="white">
<path d="M960 1344H1056V1440H960V1344Z"/>
</mask>
<path d="M1056 1440V1441H1057V1440H1056ZM1055 1344V1440H1057V1344H1055ZM1056 1439H960V1441H1056V1439Z" fill="#D0D5DD" mask="url(#path-469-inside-234_2_8851)"/>
<mask id="path-471-inside-235_2_8851" fill="white">
<path d="M1056 1344H1152V1440H1056V1344Z"/>
</mask>
<path d="M1152 1440V1441H1153V1440H1152ZM1151 1344V1440H1153V1344H1151ZM1152 1439H1056V1441H1152V1439Z" fill="#D0D5DD" mask="url(#path-471-inside-235_2_8851)"/>
<mask id="path-473-inside-236_2_8851" fill="white">
<path d="M1152 1344H1248V1440H1152V1344Z"/>
</mask>
<path d="M1248 1440V1441H1249V1440H1248ZM1247 1344V1440H1249V1344H1247ZM1248 1439H1152V1441H1248V1439Z" fill="#D0D5DD" mask="url(#path-473-inside-236_2_8851)"/>
<mask id="path-475-inside-237_2_8851" fill="white">
<path d="M1248 1344H1344V1440H1248V1344Z"/>
</mask>
<path d="M1344 1440V1441H1345V1440H1344ZM1343 1344V1440H1345V1344H1343ZM1344 1439H1248V1441H1344V1439Z" fill="#D0D5DD" mask="url(#path-475-inside-237_2_8851)"/>
<mask id="path-477-inside-238_2_8851" fill="white">
<path d="M1344 1344H1440V1440H1344V1344Z"/>
</mask>
<path d="M1440 1440V1441H1441V1440H1440ZM1439 1344V1440H1441V1344H1439ZM1440 1439H1344V1441H1440V1439Z" fill="#D0D5DD" mask="url(#path-477-inside-238_2_8851)"/>
<mask id="path-479-inside-239_2_8851" fill="white">
<path d="M1440 1344H1536V1440H1440V1344Z"/>
</mask>
<path d="M1440 1344H1536V1440H1440V1344Z" fill="#F2F4F7"/>
<path d="M1536 1440V1441H1537V1440H1536ZM1535 1344V1440H1537V1344H1535ZM1536 1439H1440V1441H1536V1439Z" fill="#D0D5DD" mask="url(#path-479-inside-239_2_8851)"/>
<mask id="path-481-inside-240_2_8851" fill="white">
<path d="M1536 1344H1632V1440H1536V1344Z"/>
</mask>
<path d="M1632 1440V1441H1633V1440H1632ZM1631 1344V1440H1633V1344H1631ZM1632 1439H1536V1441H1632V1439Z" fill="#D0D5DD" mask="url(#path-481-inside-240_2_8851)"/>
</g>
<rect x="-95.5" y="0.5" width="1919" height="1439" stroke="#D0D5DD"/>
</g>
<defs>
<radialGradient id="paint0_radial_2_8851" cx="0" cy="0" r="1" gradientUnits="userSpaceOnUse" gradientTransform="translate(720 -0.000171661) rotate(90) scale(1440 751.588)">
<stop/>
<stop offset="0.953125" stop-opacity="0"/>
</radialGradient>
<clipPath id="clip0_2_8851">
<rect x="-96" width="1920" height="1440" fill="white"/>
</clipPath>
</defs>
</svg>

