<svg width="216" height="28" viewBox="0 0 216 28" fill="none" xmlns="http://www.w3.org/2000/svg">
<path d="M10.1055 21.6576C8.76 21.6577 7.43545 21.6614 6.11093 21.6564C5.47164 21.654 4.8681 21.5139 4.3315 21.1442C3.56327 20.6149 3.12949 19.8887 3.01861 18.9621C2.98112 18.6488 2.98556 18.3362 2.98539 18.0229C2.98425 15.9455 2.9813 13.8681 2.98694 11.7906C2.9886 11.1828 3.10841 10.5964 3.44284 10.0773C4.00967 9.19738 4.81401 8.70243 5.86855 8.66999C6.59987 8.64749 7.33238 8.66512 8.06434 8.66161C8.37755 8.6601 8.69078 8.64441 9.0039 8.6469C9.16936 8.64822 9.21906 8.58032 9.21747 8.42089C9.21122 7.79354 9.21224 7.16607 9.21681 6.53869C9.22015 6.08077 9.41711 5.79829 9.79064 5.69542C10.222 5.57662 10.6528 5.83667 10.7401 6.27491C10.7644 6.39695 10.7766 6.52328 10.7775 6.64776C10.7815 7.21937 10.7867 7.79116 10.7758 8.3626C10.772 8.56333 10.8208 8.64295 11.0403 8.64938C12.0371 8.67858 13.0339 8.64762 14.0305 8.66484C15.3008 8.6868 16.3239 9.39259 16.7939 10.5742C16.9078 10.8604 16.9722 11.1621 16.98 11.4703C17.0425 13.9236 16.991 16.3772 16.9749 18.8305C16.9655 20.2594 15.7609 21.4917 14.3282 21.6275C14.0915 21.6499 13.8558 21.6583 13.6189 21.6582C12.4547 21.6579 11.2906 21.6578 10.1055 21.6576ZM5.95678 10.1989C5.14194 10.2578 4.57093 10.8411 4.55078 11.6555C4.53751 12.1919 4.54733 12.729 4.54713 13.2657C4.54644 15.0225 4.54337 16.7793 4.54631 18.5361C4.54786 19.4586 5.12843 20.0894 6.0163 20.0928C8.66539 20.1031 11.3146 20.1029 13.9636 20.0923C14.8449 20.0887 15.4486 19.4534 15.4496 18.5693C15.4523 16.2967 15.4527 14.024 15.4494 11.7513C15.4481 10.8244 14.8263 10.1986 13.9013 10.1974C11.2661 10.1941 8.63094 10.1971 5.95678 10.1989Z" fill="#175CD3"/>
<path d="M2.04289 13.9525C2.04291 15.4377 2.04309 16.9021 2.04278 18.3665C2.04272 18.6527 2.04173 18.6475 1.75323 18.6545C1.45013 18.6619 1.15185 18.6395 0.875652 18.5071C0.309544 18.2358 0.0295195 17.7576 0.0148384 17.1526C-0.00951087 16.149 0.00137854 15.1444 0.0104841 14.1404C0.0179942 13.3122 0.675786 12.6617 1.50414 12.6418C2.04325 12.6289 2.04324 12.6289 2.04305 13.1575C2.04296 13.4155 2.04294 13.6735 2.04289 13.9525Z" fill="#175CD3"/>
<path d="M17.9575 16.2538C17.9576 15.118 17.9613 14.0031 17.9541 12.8883C17.9529 12.7008 18.0042 12.6347 18.1997 12.636C18.5028 12.6381 18.7995 12.6568 19.0785 12.7808C19.676 13.0462 19.9738 13.5285 19.9869 14.1637C20.0073 15.1528 20.0016 16.1426 19.9897 17.1319C19.9791 18.0027 19.3085 18.6507 18.4321 18.651C17.8764 18.6513 17.9634 18.7273 17.9589 18.177C17.9537 17.5429 17.9576 16.9088 17.9575 16.2538Z" fill="#175CD3"/>
<path d="M7.18439 14.8826C6.30831 14.6563 5.95708 13.6044 6.49951 12.8765C6.86572 12.3851 7.54175 12.2507 8.11797 12.5385C8.61749 12.788 8.88209 13.4492 8.71367 14.0269C8.54707 14.5985 7.98614 14.9754 7.38664 14.9173C7.32448 14.9113 7.26312 14.897 7.18439 14.8826Z" fill="#175CD3"/>
<path d="M13.7153 13.9456C13.513 14.8954 12.3155 15.2594 11.5976 14.5618C11.2151 14.19 11.121 13.5618 11.3775 13.0362C11.5806 12.6199 12.1592 12.329 12.6447 12.3991C13.2114 12.481 13.6178 12.871 13.7227 13.413C13.7568 13.5887 13.757 13.7568 13.7153 13.9456Z" fill="#175CD3"/>
<path d="M7.8998 18.4796C7.77567 18.6078 7.63491 18.6534 7.47486 18.6527C7.15519 18.6514 6.83545 18.6561 6.51585 18.6512C6.18533 18.6462 5.99046 18.4496 5.9922 18.1338C5.9939 17.8244 6.19505 17.6275 6.52577 17.6223C6.83147 17.6174 7.13734 17.6183 7.44307 17.6221C7.95291 17.6284 8.17162 18.0269 7.8998 18.4796Z" fill="#175CD3"/>
<path d="M9.77294 18.6532C9.65486 18.6525 9.55709 18.6565 9.45998 18.6503C9.17661 18.6322 8.98073 18.4296 8.97101 18.1498C8.96179 17.8846 9.16262 17.6401 9.43681 17.6281C9.80504 17.612 10.1753 17.6106 10.5433 17.6301C10.8481 17.6463 11.008 17.8553 10.9992 18.1683C10.9912 18.4517 10.8016 18.6412 10.5037 18.6505C10.2672 18.6579 10.0303 18.6528 9.77294 18.6532Z" fill="#175CD3"/>
<path d="M13.8357 17.7487C14.0108 17.9437 14.0597 18.1501 13.9485 18.3765C13.8386 18.6 13.6396 18.6576 13.4073 18.6539C13.1076 18.6492 12.8078 18.6556 12.5081 18.6515C12.1741 18.6469 11.975 18.4518 11.9756 18.1381C11.9762 17.8311 12.1822 17.6279 12.5105 17.6224C12.8241 17.6172 13.1379 17.6218 13.4516 17.6217C13.5878 17.6217 13.7139 17.6529 13.8357 17.7487Z" fill="#175CD3"/>
<path d="M37.7273 21H33.2912V7.90909H37.8168C39.1165 7.90909 40.233 8.17116 41.1662 8.69531C42.1037 9.2152 42.8239 9.96307 43.3267 10.9389C43.8295 11.9148 44.081 13.0824 44.081 14.4418C44.081 15.8054 43.8274 16.9773 43.3203 17.9574C42.8175 18.9375 42.0909 19.6896 41.1406 20.2138C40.1946 20.7379 39.0568 21 37.7273 21ZM35.6626 18.9482H37.6122C38.5241 18.9482 39.2848 18.782 39.8942 18.4496C40.5036 18.1129 40.9616 17.6122 41.2685 16.9474C41.5753 16.2784 41.7287 15.4432 41.7287 14.4418C41.7287 13.4403 41.5753 12.6094 41.2685 11.9489C40.9616 11.2841 40.5078 10.7876 39.907 10.4595C39.3104 10.1271 38.5689 9.96094 37.6825 9.96094H35.6626V18.9482ZM46.2319 21V11.1818H48.5458V21H46.2319ZM47.3952 9.78835C47.0288 9.78835 46.7134 9.6669 46.4492 9.42401C46.185 9.17685 46.0529 8.88068 46.0529 8.53551C46.0529 8.18608 46.185 7.88991 46.4492 7.64702C46.7134 7.39986 47.0288 7.27628 47.3952 7.27628C47.766 7.27628 48.0813 7.39986 48.3413 7.64702C48.6055 7.88991 48.7376 8.18608 48.7376 8.53551C48.7376 8.88068 48.6055 9.17685 48.3413 9.42401C48.0813 9.6669 47.766 9.78835 47.3952 9.78835ZM58.6852 13.777L56.5758 14.0071C56.5162 13.794 56.4118 13.5938 56.2626 13.4062C56.1177 13.2188 55.9217 13.0675 55.6745 12.9524C55.4274 12.8374 55.1248 12.7798 54.7669 12.7798C54.2853 12.7798 53.8805 12.8842 53.5524 13.093C53.2285 13.3018 53.0687 13.5724 53.073 13.9048C53.0687 14.1903 53.1731 14.4226 53.3862 14.6016C53.6035 14.7805 53.9615 14.9276 54.4601 15.0426L56.1348 15.4006C57.0637 15.6009 57.7541 15.9183 58.2058 16.353C58.6618 16.7876 58.8919 17.3565 58.8961 18.0597C58.8919 18.6776 58.7108 19.223 58.3528 19.696C57.9991 20.1648 57.5069 20.5312 56.8762 20.7955C56.2456 21.0597 55.5211 21.1918 54.7029 21.1918C53.5012 21.1918 52.5339 20.9403 51.801 20.4375C51.068 19.9304 50.6312 19.2251 50.4906 18.3217L52.747 18.1044C52.8493 18.5476 53.0666 18.8821 53.399 19.108C53.7314 19.3338 54.1639 19.4467 54.6966 19.4467C55.2463 19.4467 55.6873 19.3338 56.0197 19.108C56.3564 18.8821 56.5247 18.603 56.5247 18.2706C56.5247 17.9893 56.416 17.7571 56.1987 17.5739C55.9856 17.3906 55.6532 17.25 55.2015 17.152L53.5268 16.8004C52.585 16.6044 51.8883 16.2741 51.4366 15.8097C50.9849 15.3409 50.7612 14.7486 50.7654 14.0327C50.7612 13.4276 50.9252 12.9034 51.2576 12.4602C51.5943 12.0128 52.0609 11.6676 52.6575 11.4247C53.2583 11.1776 53.9508 11.054 54.7349 11.054C55.8855 11.054 56.791 11.299 57.4515 11.7891C58.1163 12.2791 58.5275 12.9418 58.6852 13.777ZM65.0868 21.1918C64.1067 21.1918 63.2651 20.9766 62.562 20.5462C61.8631 20.1158 61.324 19.5213 60.9448 18.7628C60.5698 18 60.3823 17.1222 60.3823 16.1293C60.3823 15.1321 60.574 14.2521 60.9576 13.4893C61.3411 12.7223 61.8823 12.1257 62.5811 11.6996C63.2843 11.2692 64.1152 11.054 65.074 11.054C65.8709 11.054 66.5762 11.201 67.1898 11.495C67.8077 11.7848 68.2999 12.196 68.6664 12.7287C69.0328 13.2571 69.2417 13.875 69.2928 14.5824H67.0811C66.9917 14.1094 66.7786 13.7152 66.4419 13.3999C66.1096 13.0803 65.6642 12.9205 65.106 12.9205C64.633 12.9205 64.2175 13.0483 63.8596 13.304C63.5016 13.5554 63.2225 13.9176 63.0222 14.3906C62.8262 14.8636 62.7282 15.4304 62.7282 16.0909C62.7282 16.7599 62.8262 17.3352 63.0222 17.8168C63.2182 18.294 63.4931 18.6626 63.8468 18.9226C64.2047 19.1783 64.6245 19.3061 65.106 19.3061C65.4469 19.3061 65.7516 19.2422 66.0201 19.1143C66.2928 18.9822 66.5208 18.7926 66.704 18.5455C66.8873 18.2983 67.013 17.9979 67.0811 17.6442H69.2928C69.2374 18.3388 69.0328 18.9545 68.6792 19.4915C68.3255 20.0241 67.8439 20.4418 67.2346 20.7443C66.6252 21.0426 65.9093 21.1918 65.0868 21.1918ZM75.4755 21.1918C74.5167 21.1918 73.6857 20.9808 72.9826 20.5589C72.2795 20.1371 71.734 19.5469 71.3462 18.7884C70.9627 18.0298 70.771 17.1435 70.771 16.1293C70.771 15.1151 70.9627 14.2266 71.3462 13.4638C71.734 12.701 72.2795 12.1087 72.9826 11.6868C73.6857 11.2649 74.5167 11.054 75.4755 11.054C76.4343 11.054 77.2653 11.2649 77.9684 11.6868C78.6715 12.1087 79.2148 12.701 79.5984 13.4638C79.9862 14.2266 80.18 15.1151 80.18 16.1293C80.18 17.1435 79.9862 18.0298 79.5984 18.7884C79.2148 19.5469 78.6715 20.1371 77.9684 20.5589C77.2653 20.9808 76.4343 21.1918 75.4755 21.1918ZM75.4883 19.3381C76.0082 19.3381 76.4428 19.1953 76.7923 18.9098C77.1417 18.62 77.4016 18.2322 77.5721 17.7464C77.7468 17.2607 77.8342 16.7195 77.8342 16.1229C77.8342 15.522 77.7468 14.9787 77.5721 14.4929C77.4016 14.0028 77.1417 13.6129 76.7923 13.3232C76.4428 13.0334 76.0082 12.8885 75.4883 12.8885C74.9556 12.8885 74.5124 13.0334 74.1587 13.3232C73.8093 13.6129 73.5472 14.0028 73.3725 14.4929C73.2021 14.9787 73.1168 15.522 73.1168 16.1229C73.1168 16.7195 73.2021 17.2607 73.3725 17.7464C73.5472 18.2322 73.8093 18.62 74.1587 18.9098C74.5124 19.1953 74.9556 19.3381 75.4883 19.3381ZM90.5799 11.1818L87.0835 21H84.5266L81.0302 11.1818H83.4975L85.7539 18.4751H85.8562L88.119 11.1818H90.5799ZM96.1937 21.1918C95.2093 21.1918 94.3592 20.9872 93.6433 20.5781C92.9316 20.1648 92.3841 19.581 92.0005 18.8267C91.617 18.0682 91.4252 17.1754 91.4252 16.1484C91.4252 15.1385 91.617 14.2521 92.0005 13.4893C92.3883 12.7223 92.9295 12.1257 93.6241 11.6996C94.3187 11.2692 95.1348 11.054 96.0723 11.054C96.6774 11.054 97.2484 11.152 97.7853 11.348C98.3265 11.5398 98.8038 11.8381 99.2172 12.2429C99.6348 12.6477 99.9629 13.1634 100.202 13.7898C100.44 14.4119 100.559 15.1534 100.559 16.0142V16.7237H92.5119V15.1641H98.3414C98.3372 14.7209 98.2413 14.3267 98.0538 13.9815C97.8663 13.6321 97.6042 13.3572 97.2676 13.157C96.9352 12.9567 96.5474 12.8565 96.1042 12.8565C95.6312 12.8565 95.2157 12.9716 94.8578 13.2017C94.4998 13.4276 94.2207 13.7259 94.0204 14.0966C93.8244 14.4631 93.7243 14.8658 93.72 15.3047V16.6662C93.72 17.2372 93.8244 17.7273 94.0332 18.1364C94.242 18.5412 94.5339 18.8523 94.9089 19.0696C95.2839 19.2827 95.7228 19.3892 96.2257 19.3892C96.5623 19.3892 96.867 19.3423 97.1397 19.2486C97.4125 19.1506 97.649 19.0078 97.8493 18.8203C98.0495 18.6328 98.2008 18.4006 98.3031 18.1236L100.464 18.3665C100.327 18.9375 100.067 19.4361 99.6838 19.8622C99.3045 20.2841 98.8187 20.6122 98.2264 20.8466C97.6341 21.0767 96.9565 21.1918 96.1937 21.1918ZM102.517 21V11.1818H104.761V12.8182H104.863C105.042 12.2514 105.349 11.8146 105.783 11.5078C106.222 11.1967 106.723 11.0412 107.286 11.0412C107.413 11.0412 107.556 11.0476 107.714 11.0604C107.876 11.0689 108.01 11.0838 108.116 11.1051V13.2337C108.018 13.1996 107.863 13.1697 107.65 13.1442C107.441 13.1143 107.239 13.0994 107.043 13.0994C106.621 13.0994 106.241 13.1911 105.905 13.3743C105.572 13.5533 105.31 13.8026 105.119 14.1222C104.927 14.4418 104.831 14.8104 104.831 15.228V21H102.517ZM115.902 21H113.371L117.979 7.90909H120.907L125.522 21H122.991L119.494 10.5938H119.392L115.902 21ZM115.985 15.8672H122.888V17.772H115.985V15.8672ZM129.618 7.90909V21H127.246V7.90909H129.618ZM139.374 21.1982C138.751 21.1982 138.191 21.0874 137.692 20.8658C137.198 20.6399 136.806 20.3075 136.516 19.8686C136.231 19.4297 136.088 18.8885 136.088 18.245C136.088 17.6911 136.19 17.233 136.395 16.8707C136.599 16.5085 136.879 16.2188 137.232 16.0014C137.586 15.7841 137.984 15.62 138.428 15.5092C138.875 15.3942 139.337 15.3111 139.815 15.2599C140.39 15.2003 140.857 15.147 141.214 15.1001C141.572 15.049 141.832 14.9723 141.994 14.87C142.161 14.7635 142.244 14.5994 142.244 14.3778V14.3395C142.244 13.858 142.101 13.4851 141.815 13.2209C141.53 12.9567 141.119 12.8246 140.582 12.8246C140.015 12.8246 139.565 12.9482 139.233 13.1953C138.905 13.4425 138.683 13.7344 138.568 14.071L136.408 13.7642C136.578 13.1676 136.859 12.669 137.251 12.2685C137.643 11.8636 138.123 11.5611 138.69 11.3608C139.256 11.1562 139.883 11.054 140.569 11.054C141.042 11.054 141.513 11.1094 141.982 11.2202C142.45 11.331 142.879 11.5142 143.266 11.7699C143.654 12.0213 143.965 12.3643 144.2 12.799C144.438 13.2337 144.558 13.777 144.558 14.429V21H142.333V19.6513H142.256C142.116 19.924 141.918 20.1797 141.662 20.4183C141.411 20.6527 141.093 20.8423 140.71 20.9872C140.33 21.1278 139.885 21.1982 139.374 21.1982ZM139.974 19.4979C140.439 19.4979 140.842 19.4062 141.183 19.223C141.523 19.0355 141.786 18.7884 141.969 18.4815C142.156 18.1747 142.25 17.8402 142.25 17.478V16.321C142.178 16.3807 142.054 16.4361 141.879 16.4872C141.709 16.5384 141.517 16.5831 141.304 16.6214C141.091 16.6598 140.88 16.6939 140.671 16.7237C140.462 16.7536 140.281 16.7791 140.128 16.8004C139.783 16.8473 139.474 16.924 139.201 17.0305C138.928 17.1371 138.713 17.2862 138.555 17.478C138.398 17.6655 138.319 17.9084 138.319 18.2067C138.319 18.6328 138.474 18.9545 138.786 19.1719C139.097 19.3892 139.493 19.4979 139.974 19.4979ZM154.644 13.777L152.535 14.0071C152.475 13.794 152.371 13.5938 152.222 13.4062C152.077 13.2188 151.881 13.0675 151.634 12.9524C151.386 12.8374 151.084 12.7798 150.726 12.7798C150.244 12.7798 149.839 12.8842 149.511 13.093C149.188 13.3018 149.028 13.5724 149.032 13.9048C149.028 14.1903 149.132 14.4226 149.345 14.6016C149.563 14.7805 149.92 14.9276 150.419 15.0426L152.094 15.4006C153.023 15.6009 153.713 15.9183 154.165 16.353C154.621 16.7876 154.851 17.3565 154.855 18.0597C154.851 18.6776 154.67 19.223 154.312 19.696C153.958 20.1648 153.466 20.5312 152.835 20.7955C152.205 21.0597 151.48 21.1918 150.662 21.1918C149.46 21.1918 148.493 20.9403 147.76 20.4375C147.027 19.9304 146.59 19.2251 146.45 18.3217L148.706 18.1044C148.808 18.5476 149.026 18.8821 149.358 19.108C149.69 19.3338 150.123 19.4467 150.656 19.4467C151.205 19.4467 151.646 19.3338 151.979 19.108C152.315 18.8821 152.484 18.603 152.484 18.2706C152.484 17.9893 152.375 17.7571 152.158 17.5739C151.945 17.3906 151.612 17.25 151.161 17.152L149.486 16.8004C148.544 16.6044 147.847 16.2741 147.396 15.8097C146.944 15.3409 146.72 14.7486 146.724 14.0327C146.72 13.4276 146.884 12.9034 147.217 12.4602C147.553 12.0128 148.02 11.6676 148.616 11.4247C149.217 11.1776 149.91 11.054 150.694 11.054C151.844 11.054 152.75 11.299 153.411 11.7891C154.075 12.2791 154.487 12.9418 154.644 13.777ZM164.523 13.777L162.414 14.0071C162.354 13.794 162.25 13.5938 162.1 13.4062C161.956 13.2188 161.76 13.0675 161.512 12.9524C161.265 12.8374 160.963 12.7798 160.605 12.7798C160.123 12.7798 159.718 12.8842 159.39 13.093C159.066 13.3018 158.907 13.5724 158.911 13.9048C158.907 14.1903 159.011 14.4226 159.224 14.6016C159.441 14.7805 159.799 14.9276 160.298 15.0426L161.973 15.4006C162.902 15.6009 163.592 15.9183 164.044 16.353C164.5 16.7876 164.73 17.3565 164.734 18.0597C164.73 18.6776 164.549 19.223 164.191 19.696C163.837 20.1648 163.345 20.5312 162.714 20.7955C162.083 21.0597 161.359 21.1918 160.541 21.1918C159.339 21.1918 158.372 20.9403 157.639 20.4375C156.906 19.9304 156.469 19.2251 156.328 18.3217L158.585 18.1044C158.687 18.5476 158.904 18.8821 159.237 19.108C159.569 19.3338 160.002 19.4467 160.534 19.4467C161.084 19.4467 161.525 19.3338 161.858 19.108C162.194 18.8821 162.363 18.603 162.363 18.2706C162.363 17.9893 162.254 17.7571 162.037 17.5739C161.824 17.3906 161.491 17.25 161.039 17.152L159.365 16.8004C158.423 16.6044 157.726 16.2741 157.275 15.8097C156.823 15.3409 156.599 14.7486 156.603 14.0327C156.599 13.4276 156.763 12.9034 157.096 12.4602C157.432 12.0128 157.899 11.6676 158.495 11.4247C159.096 11.1776 159.789 11.054 160.573 11.054C161.723 11.054 162.629 11.299 163.289 11.7891C163.954 12.2791 164.365 12.9418 164.523 13.777ZM166.642 21V11.1818H168.956V21H166.642ZM167.805 9.78835C167.439 9.78835 167.124 9.6669 166.859 9.42401C166.595 9.17685 166.463 8.88068 166.463 8.53551C166.463 8.18608 166.595 7.88991 166.859 7.64702C167.124 7.39986 167.439 7.27628 167.805 7.27628C168.176 7.27628 168.491 7.39986 168.751 7.64702C169.016 7.88991 169.148 8.18608 169.148 8.53551C169.148 8.88068 169.016 9.17685 168.751 9.42401C168.491 9.6669 168.176 9.78835 167.805 9.78835ZM179.095 13.777L176.986 14.0071C176.926 13.794 176.822 13.5938 176.673 13.4062C176.528 13.2188 176.332 13.0675 176.085 12.9524C175.838 12.8374 175.535 12.7798 175.177 12.7798C174.695 12.7798 174.291 12.8842 173.963 13.093C173.639 13.3018 173.479 13.5724 173.483 13.9048C173.479 14.1903 173.583 14.4226 173.796 14.6016C174.014 14.7805 174.372 14.9276 174.87 15.0426L176.545 15.4006C177.474 15.6009 178.164 15.9183 178.616 16.353C179.072 16.7876 179.302 17.3565 179.306 18.0597C179.302 18.6776 179.121 19.223 178.763 19.696C178.409 20.1648 177.917 20.5312 177.286 20.7955C176.656 21.0597 175.931 21.1918 175.113 21.1918C173.911 21.1918 172.944 20.9403 172.211 20.4375C171.478 19.9304 171.041 19.2251 170.901 18.3217L173.157 18.1044C173.259 18.5476 173.477 18.8821 173.809 19.108C174.142 19.3338 174.574 19.4467 175.107 19.4467C175.656 19.4467 176.097 19.3338 176.43 19.108C176.767 18.8821 176.935 18.603 176.935 18.2706C176.935 17.9893 176.826 17.7571 176.609 17.5739C176.396 17.3906 176.063 17.25 175.612 17.152L173.937 16.8004C172.995 16.6044 172.298 16.2741 171.847 15.8097C171.395 15.3409 171.171 14.7486 171.176 14.0327C171.171 13.4276 171.335 12.9034 171.668 12.4602C172.004 12.0128 172.471 11.6676 173.068 11.4247C173.669 11.1776 174.361 11.054 175.145 11.054C176.296 11.054 177.201 11.299 177.862 11.7891C178.526 12.2791 178.938 12.9418 179.095 13.777ZM186.117 11.1818V12.9716H180.473V11.1818H186.117ZM181.866 8.82955H184.18V18.0469C184.18 18.358 184.227 18.5966 184.321 18.7628C184.419 18.9247 184.547 19.0355 184.704 19.0952C184.862 19.1548 185.037 19.1847 185.229 19.1847C185.373 19.1847 185.506 19.174 185.625 19.1527C185.748 19.1314 185.842 19.1122 185.906 19.0952L186.296 20.9041C186.172 20.9467 185.996 20.9936 185.765 21.0447C185.54 21.0959 185.263 21.1257 184.934 21.1342C184.355 21.1513 183.833 21.0639 183.368 20.8722C182.904 20.6761 182.535 20.3736 182.263 19.9645C181.994 19.5554 181.862 19.044 181.866 18.4304V8.82955ZM190.877 21.1982C190.255 21.1982 189.695 21.0874 189.196 20.8658C188.702 20.6399 188.31 20.3075 188.02 19.8686C187.735 19.4297 187.592 18.8885 187.592 18.245C187.592 17.6911 187.694 17.233 187.899 16.8707C188.103 16.5085 188.382 16.2188 188.736 16.0014C189.09 15.7841 189.488 15.62 189.931 15.5092C190.379 15.3942 190.841 15.3111 191.319 15.2599C191.894 15.2003 192.36 15.147 192.718 15.1001C193.076 15.049 193.336 14.9723 193.498 14.87C193.664 14.7635 193.748 14.5994 193.748 14.3778V14.3395C193.748 13.858 193.605 13.4851 193.319 13.2209C193.034 12.9567 192.623 12.8246 192.086 12.8246C191.519 12.8246 191.069 12.9482 190.737 13.1953C190.409 13.4425 190.187 13.7344 190.072 14.071L187.912 13.7642C188.082 13.1676 188.363 12.669 188.755 12.2685C189.147 11.8636 189.627 11.5611 190.194 11.3608C190.76 11.1562 191.387 11.054 192.073 11.054C192.546 11.054 193.017 11.1094 193.485 11.2202C193.954 11.331 194.382 11.5142 194.77 11.7699C195.158 12.0213 195.469 12.3643 195.703 12.799C195.942 13.2337 196.061 13.777 196.061 14.429V21H193.837V19.6513H193.76C193.62 19.924 193.422 20.1797 193.166 20.4183C192.914 20.6527 192.597 20.8423 192.213 20.9872C191.834 21.1278 191.389 21.1982 190.877 21.1982ZM191.478 19.4979C191.943 19.4979 192.346 19.4062 192.686 19.223C193.027 19.0355 193.289 18.7884 193.473 18.4815C193.66 18.1747 193.754 17.8402 193.754 17.478V16.321C193.681 16.3807 193.558 16.4361 193.383 16.4872C193.213 16.5384 193.021 16.5831 192.808 16.6214C192.595 16.6598 192.384 16.6939 192.175 16.7237C191.966 16.7536 191.785 16.7791 191.632 16.8004C191.287 16.8473 190.978 16.924 190.705 17.0305C190.432 17.1371 190.217 17.2862 190.059 17.478C189.902 17.6655 189.823 17.9084 189.823 18.2067C189.823 18.6328 189.978 18.9545 190.289 19.1719C190.6 19.3892 190.997 19.4979 191.478 19.4979ZM200.702 15.2472V21H198.388V11.1818H200.6V12.8501H200.715C200.941 12.3004 201.301 11.8636 201.795 11.5398C202.294 11.2159 202.909 11.054 203.642 11.054C204.32 11.054 204.91 11.1989 205.413 11.4886C205.92 11.7784 206.312 12.1982 206.589 12.7479C206.87 13.2976 207.009 13.9645 207.005 14.7486V21H204.691V15.1065C204.691 14.4503 204.52 13.9368 204.179 13.5661C203.843 13.1953 203.376 13.0099 202.779 13.0099C202.375 13.0099 202.015 13.0994 201.699 13.2784C201.388 13.4531 201.143 13.7067 200.964 14.0391C200.789 14.3714 200.702 14.7741 200.702 15.2472ZM214.26 11.1818V12.9716H208.615V11.1818H214.26ZM210.009 8.82955H212.323V18.0469C212.323 18.358 212.37 18.5966 212.463 18.7628C212.561 18.9247 212.689 19.0355 212.847 19.0952C213.005 19.1548 213.179 19.1847 213.371 19.1847C213.516 19.1847 213.648 19.174 213.767 19.1527C213.891 19.1314 213.985 19.1122 214.049 19.0952L214.439 20.9041C214.315 20.9467 214.138 20.9936 213.908 21.0447C213.682 21.0959 213.405 21.1257 213.077 21.1342C212.498 21.1513 211.975 21.0639 211.511 20.8722C211.047 20.6761 210.678 20.3736 210.405 19.9645C210.137 19.5554 210.005 19.044 210.009 18.4304V8.82955Z" fill="#175CD3"/>
</svg>

