<svg xmlns="http://www.w3.org/2000/svg" width="211.281" height="45.106" id="microsoft"><path fill="#706d6e" d="M211.281 20.406V16.69h-4.614v-5.777l-.155.048-4.334 1.326-.085.026v4.377h-6.841v-2.44a3.873 3.873 0 0 1 .754-2.584 2.66 2.66 0 0 1 2.114-.864 4.925 4.925 0 0 1 2.005.456l.17.076v-3.91l-.08-.029a7.816 7.816 0 0 0-2.563-.342 7.512 7.512 0 0 0-3.635.873 6.214 6.214 0 0 0-2.494 2.466 7.351 7.351 0 0 0-.883 3.618v2.68h-3.213v3.716h3.213v15.653h4.612V20.406h6.841v9.944c0 4.1 1.932 6.173 5.744 6.173a9.422 9.422 0 0 0 1.958-.217 5.41 5.41 0 0 0 1.426-.452l.061-.036v-3.75l-.188.124a3.23 3.23 0 0 1-.927.4 3.524 3.524 0 0 1-.911.155 2.471 2.471 0 0 1-1.963-.715 3.851 3.851 0 0 1-.626-2.482v-9.144ZM177.125 32.75a4.893 4.893 0 0 1-3.924-1.649 7 7 0 0 1-1.41-4.656 7.277 7.277 0 0 1 1.41-4.78 4.815 4.815 0 0 1 3.886-1.675 4.742 4.742 0 0 1 3.784 1.6 7.135 7.135 0 0 1 1.382 4.741 7.607 7.607 0 0 1-1.3 4.8 4.626 4.626 0 0 1-3.828 1.617m.205-16.532a10.116 10.116 0 0 0-7.539 2.782 10.431 10.431 0 0 0-2.724 7.593 9.878 9.878 0 0 0 2.659 7.249 9.647 9.647 0 0 0 7.137 2.678 9.839 9.839 0 0 0 7.39-2.82 10.4 10.4 0 0 0 2.724-7.518 10.148 10.148 0 0 0-2.555-7.3 9.411 9.411 0 0 0-7.092-2.661m-17.7 0a8.338 8.338 0 0 0-5.343 1.651 5.269 5.269 0 0 0-2.082 4.3 6.013 6.013 0 0 0 .449 2.4 4.825 4.825 0 0 0 1.378 1.8 12 12 0 0 0 2.8 1.568 20.888 20.888 0 0 1 2.332 1.086 3.241 3.241 0 0 1 1.027.843 1.893 1.893 0 0 1 .285 1.1c0 1.3-.974 1.934-2.98 1.934a8.192 8.192 0 0 1-2.521-.461 9.473 9.473 0 0 1-2.582-1.309l-.192-.137v4.441l.07.033a11.426 11.426 0 0 0 2.445.755 13.116 13.116 0 0 0 2.611.3 8.853 8.853 0 0 0 5.641-1.661 5.372 5.372 0 0 0 2.1-4.4 5.059 5.059 0 0 0-1.13-3.328 9.686 9.686 0 0 0-3.839-2.445 9.9 9.9 0 0 1-2.735-1.422 1.99 1.99 0 0 1-.552-1.492 1.662 1.662 0 0 1 .7-1.38 3.146 3.146 0 0 1 1.963-.554 8.035 8.035 0 0 1 2.337.359 7.509 7.509 0 0 1 2.041.946l.188.129v-4.207l-.072-.031a10.062 10.062 0 0 0-2.072-.578 12.649 12.649 0 0 0-2.272-.235M140.182 32.75a4.893 4.893 0 0 1-3.924-1.649 7 7 0 0 1-1.409-4.651 7.276 7.276 0 0 1 1.41-4.78 4.812 4.812 0 0 1 3.886-1.675 4.742 4.742 0 0 1 3.784 1.6 7.134 7.134 0 0 1 1.382 4.741 7.607 7.607 0 0 1-1.3 4.8 4.625 4.625 0 0 1-3.828 1.617m.206-16.532a10.114 10.114 0 0 0-7.539 2.782 10.431 10.431 0 0 0-2.725 7.593 9.876 9.876 0 0 0 2.66 7.249 9.646 9.646 0 0 0 7.137 2.678 9.84 9.84 0 0 0 7.39-2.82 10.4 10.4 0 0 0 2.724-7.518 10.146 10.146 0 0 0-2.556-7.3 9.411 9.411 0 0 0-7.091-2.661m-17.265 3.821V16.69h-4.556v19.369h4.556V26.15a6.906 6.906 0 0 1 1.136-4.114 3.483 3.483 0 0 1 2.949-1.556 5.35 5.35 0 0 1 1.37.2 3.466 3.466 0 0 1 1.062.43l.192.139v-4.592l-.074-.032a4.717 4.717 0 0 0-1.784-.271 4.669 4.669 0 0 0-3.047 1.092 6.171 6.171 0 0 0-1.753 2.6Zm-12.715-3.822a11.247 11.247 0 0 0-5.54 1.332 8.974 8.974 0 0 0-3.654 3.758 11.967 11.967 0 0 0-1.255 5.566 10.269 10.269 0 0 0 1.22 4.99 8.572 8.572 0 0 0 3.409 3.447 10.149 10.149 0 0 0 4.981 1.211 10.906 10.906 0 0 0 5.5-1.287l.06-.034v-4.175l-.192.14a8.564 8.564 0 0 1-2.229 1.161 6.736 6.736 0 0 1-2.183.423 5.61 5.61 0 0 1-4.265-1.662 6.466 6.466 0 0 1-1.573-4.606 6.707 6.707 0 0 1 1.64-4.728 5.58 5.58 0 0 1 4.273-1.764 7.318 7.318 0 0 1 4.337 1.509l.191.139v-4.4l-.062-.035a7.518 7.518 0 0 0-2.108-.713 12.59 12.59 0 0 0-2.547-.273m-13.588.467h-4.556v19.37h4.556V16.69Zm-2.231-8.251a2.745 2.745 0 0 0-1.941.761 2.511 2.511 0 0 0-.813 1.9 2.441 2.441 0 0 0 .8 1.863 2.775 2.775 0 0 0 1.95.742 2.81 2.81 0 0 0 1.958-.741 2.431 2.431 0 0 0 .815-1.864 2.559 2.559 0 0 0-.793-1.879 2.718 2.718 0 0 0-1.981-.782M83.22 15.26v20.8h4.65V9.032h-6.435l-8.18 20.075-7.938-20.075h-6.7v27.026h4.37v-20.8h.15l8.382 20.8h3.3l8.252-20.8h.15Z"></path><path fill="#f1511b" d="M21.433 21.433H0V0h21.433Z"></path><path fill="#80cc28" d="M45.098 21.433H23.665V0h21.433Z"></path><path fill="#00adef" d="M21.433 45.106H0V23.673h21.433Z"></path><path fill="#fbbc09" d="M45.098 45.106H23.665V23.673h21.433Z"></path></svg>