<svg width="159" height="52" viewBox="0 0 159 52" fill="none" xmlns="http://www.w3.org/2000/svg">
<g clip-path="url(#clip0_2_8954)">
<path d="M9.53834 3.60996C9.70914 3.19932 10.2909 3.19932 10.4617 3.60996L12.5278 8.57744C12.5998 8.75056 12.7626 8.86885 12.9495 8.88383L18.3123 9.31376C18.7556 9.3493 18.9354 9.90256 18.5976 10.1919L14.5117 13.6919C14.3693 13.8139 14.3071 14.0053 14.3506 14.1876L15.5989 19.4208C15.7021 19.8534 15.2315 20.1954 14.8519 19.9635L10.2606 17.1592C10.1006 17.0615 9.89938 17.0615 9.73937 17.1592L5.14806 19.9635C4.76851 20.1954 4.29788 19.8534 4.40108 19.4208L5.64939 14.1876C5.69289 14.0053 5.6307 13.8139 5.48831 13.6919L1.40241 10.1919C1.06464 9.90256 1.24441 9.3493 1.68773 9.31376L7.05054 8.88383C7.23744 8.86885 7.40024 8.75056 7.47225 8.57744L9.53834 3.60996Z" fill="#F2F4F7"/>
<g clip-path="url(#clip1_2_8954)">
<path d="M9.53834 3.60996C9.70914 3.19932 10.2909 3.19932 10.4617 3.60996L12.5278 8.57744C12.5998 8.75056 12.7626 8.86885 12.9495 8.88383L18.3123 9.31376C18.7556 9.3493 18.9354 9.90256 18.5976 10.1919L14.5117 13.6919C14.3693 13.8139 14.3071 14.0053 14.3506 14.1876L15.5989 19.4208C15.7021 19.8534 15.2315 20.1954 14.8519 19.9635L10.2606 17.1592C10.1006 17.0615 9.89938 17.0615 9.73937 17.1592L5.14806 19.9635C4.76851 20.1954 4.29788 19.8534 4.40108 19.4208L5.64939 14.1876C5.69289 14.0053 5.6307 13.8139 5.48831 13.6919L1.40241 10.1919C1.06464 9.90256 1.24441 9.3493 1.68773 9.31376L7.05054 8.88383C7.23744 8.86885 7.40024 8.75056 7.47225 8.57744L9.53834 3.60996Z" fill="#FDB022"/>
</g>
</g>
<g clip-path="url(#clip2_2_8954)">
<path d="M33.5383 3.60996C33.7091 3.19932 34.2909 3.19932 34.4617 3.60996L36.5278 8.57744C36.5998 8.75056 36.7626 8.86885 36.9495 8.88383L42.3123 9.31376C42.7556 9.3493 42.9354 9.90256 42.5976 10.1919L38.5117 13.6919C38.3693 13.8139 38.3071 14.0053 38.3506 14.1876L39.5989 19.4208C39.7021 19.8534 39.2315 20.1954 38.8519 19.9635L34.2606 17.1592C34.1006 17.0615 33.8994 17.0615 33.7394 17.1592L29.1481 19.9635C28.7685 20.1954 28.2979 19.8534 28.4011 19.4208L29.6494 14.1876C29.6929 14.0053 29.6307 13.8139 29.4883 13.6919L25.4024 10.1919C25.0646 9.90256 25.2444 9.3493 25.6877 9.31376L31.0505 8.88383C31.2374 8.86885 31.4002 8.75056 31.4722 8.57744L33.5383 3.60996Z" fill="#F2F4F7"/>
<g clip-path="url(#clip3_2_8954)">
<path d="M33.5383 3.60996C33.7091 3.19932 34.2909 3.19932 34.4617 3.60996L36.5278 8.57744C36.5998 8.75056 36.7626 8.86885 36.9495 8.88383L42.3123 9.31376C42.7556 9.3493 42.9354 9.90256 42.5976 10.1919L38.5117 13.6919C38.3693 13.8139 38.3071 14.0053 38.3506 14.1876L39.5989 19.4208C39.7021 19.8534 39.2315 20.1954 38.8519 19.9635L34.2606 17.1592C34.1006 17.0615 33.8994 17.0615 33.7394 17.1592L29.1481 19.9635C28.7685 20.1954 28.2979 19.8534 28.4011 19.4208L29.6494 14.1876C29.6929 14.0053 29.6307 13.8139 29.4883 13.6919L25.4024 10.1919C25.0646 9.90256 25.2444 9.3493 25.6877 9.31376L31.0505 8.88383C31.2374 8.86885 31.4002 8.75056 31.4722 8.57744L33.5383 3.60996Z" fill="#FDB022"/>
</g>
</g>
<g clip-path="url(#clip4_2_8954)">
<path d="M57.5383 3.60996C57.7091 3.19932 58.2909 3.19932 58.4617 3.60996L60.5278 8.57744C60.5998 8.75056 60.7626 8.86885 60.9495 8.88383L66.3123 9.31376C66.7556 9.3493 66.9354 9.90256 66.5976 10.1919L62.5117 13.6919C62.3693 13.8139 62.3071 14.0053 62.3506 14.1876L63.5989 19.4208C63.7021 19.8534 63.2315 20.1954 62.8519 19.9635L58.2606 17.1592C58.1006 17.0615 57.8994 17.0615 57.7394 17.1592L53.1481 19.9635C52.7685 20.1954 52.2979 19.8534 52.4011 19.4208L53.6494 14.1876C53.6929 14.0053 53.6307 13.8139 53.4883 13.6919L49.4024 10.1919C49.0646 9.90256 49.2444 9.3493 49.6877 9.31376L55.0505 8.88383C55.2374 8.86885 55.4002 8.75056 55.4722 8.57744L57.5383 3.60996Z" fill="#F2F4F7"/>
<g clip-path="url(#clip5_2_8954)">
<path d="M57.5383 3.60996C57.7091 3.19932 58.2909 3.19932 58.4617 3.60996L60.5278 8.57744C60.5998 8.75056 60.7626 8.86885 60.9495 8.88383L66.3123 9.31376C66.7556 9.3493 66.9354 9.90256 66.5976 10.1919L62.5117 13.6919C62.3693 13.8139 62.3071 14.0053 62.3506 14.1876L63.5989 19.4208C63.7021 19.8534 63.2315 20.1954 62.8519 19.9635L58.2606 17.1592C58.1006 17.0615 57.8994 17.0615 57.7394 17.1592L53.1481 19.9635C52.7685 20.1954 52.2979 19.8534 52.4011 19.4208L53.6494 14.1876C53.6929 14.0053 53.6307 13.8139 53.4883 13.6919L49.4024 10.1919C49.0646 9.90256 49.2444 9.3493 49.6877 9.31376L55.0505 8.88383C55.2374 8.86885 55.4002 8.75056 55.4722 8.57744L57.5383 3.60996Z" fill="#FDB022"/>
</g>
</g>
<g clip-path="url(#clip6_2_8954)">
<path d="M81.5383 3.60996C81.7091 3.19932 82.2909 3.19932 82.4617 3.60996L84.5278 8.57744C84.5998 8.75056 84.7626 8.86885 84.9495 8.88383L90.3123 9.31376C90.7556 9.3493 90.9354 9.90256 90.5976 10.1919L86.5117 13.6919C86.3693 13.8139 86.3071 14.0053 86.3506 14.1876L87.5989 19.4208C87.7021 19.8534 87.2315 20.1954 86.8519 19.9635L82.2606 17.1592C82.1006 17.0615 81.8994 17.0615 81.7394 17.1592L77.1481 19.9635C76.7685 20.1954 76.2979 19.8534 76.4011 19.4208L77.6494 14.1876C77.6929 14.0053 77.6307 13.8139 77.4883 13.6919L73.4024 10.1919C73.0646 9.90256 73.2444 9.3493 73.6877 9.31376L79.0505 8.88383C79.2374 8.86885 79.4002 8.75056 79.4722 8.57744L81.5383 3.60996Z" fill="#F2F4F7"/>
<g clip-path="url(#clip7_2_8954)">
<path d="M81.5383 3.60996C81.7091 3.19932 82.2909 3.19932 82.4617 3.60996L84.5278 8.57744C84.5998 8.75056 84.7626 8.86885 84.9495 8.88383L90.3123 9.31376C90.7556 9.3493 90.9354 9.90256 90.5976 10.1919L86.5117 13.6919C86.3693 13.8139 86.3071 14.0053 86.3506 14.1876L87.5989 19.4208C87.7021 19.8534 87.2315 20.1954 86.8519 19.9635L82.2606 17.1592C82.1006 17.0615 81.8994 17.0615 81.7394 17.1592L77.1481 19.9635C76.7685 20.1954 76.2979 19.8534 76.4011 19.4208L77.6494 14.1876C77.6929 14.0053 77.6307 13.8139 77.4883 13.6919L73.4024 10.1919C73.0646 9.90256 73.2444 9.3493 73.6877 9.31376L79.0505 8.88383C79.2374 8.86885 79.4002 8.75056 79.4722 8.57744L81.5383 3.60996Z" fill="#FDB022"/>
</g>
</g>
<g clip-path="url(#clip8_2_8954)">
<path d="M105.538 3.60996C105.709 3.19932 106.291 3.19932 106.462 3.60996L108.528 8.57744C108.6 8.75056 108.763 8.86885 108.949 8.88383L114.312 9.31376C114.756 9.3493 114.935 9.90256 114.598 10.1919L110.512 13.6919C110.369 13.8139 110.307 14.0053 110.351 14.1876L111.599 19.4208C111.702 19.8534 111.231 20.1954 110.852 19.9635L106.261 17.1592C106.101 17.0615 105.899 17.0615 105.739 17.1592L101.148 19.9635C100.769 20.1954 100.298 19.8534 100.401 19.4208L101.649 14.1876C101.693 14.0053 101.631 13.8139 101.488 13.6919L97.4024 10.1919C97.0646 9.90256 97.2444 9.3493 97.6877 9.31376L103.051 8.88383C103.237 8.86885 103.4 8.75056 103.472 8.57744L105.538 3.60996Z" fill="#F2F4F7"/>
<g clip-path="url(#clip9_2_8954)">
<path d="M105.538 3.60996C105.709 3.19932 106.291 3.19932 106.462 3.60996L108.528 8.57744C108.6 8.75056 108.763 8.86885 108.949 8.88383L114.312 9.31376C114.756 9.3493 114.935 9.90256 114.598 10.1919L110.512 13.6919C110.369 13.8139 110.307 14.0053 110.351 14.1876L111.599 19.4208C111.702 19.8534 111.231 20.1954 110.852 19.9635L106.261 17.1592C106.101 17.0615 105.899 17.0615 105.739 17.1592L101.148 19.9635C100.769 20.1954 100.298 19.8534 100.401 19.4208L101.649 14.1876C101.693 14.0053 101.631 13.8139 101.488 13.6919L97.4024 10.1919C97.0646 9.90256 97.2444 9.3493 97.6877 9.31376L103.051 8.88383C103.237 8.86885 103.4 8.75056 103.472 8.57744L105.538 3.60996Z" fill="#FDB022"/>
</g>
</g>
<path d="M129.08 18.1591C128.322 18.1591 127.644 18.017 127.045 17.733C126.447 17.4451 125.972 17.0511 125.619 16.5511C125.271 16.0511 125.085 15.4792 125.062 14.8352H127.108C127.146 15.3125 127.352 15.7027 127.727 16.0057C128.102 16.3049 128.553 16.4545 129.08 16.4545C129.492 16.4545 129.86 16.3598 130.182 16.1705C130.504 15.9811 130.758 15.7178 130.943 15.3807C131.129 15.0436 131.22 14.6591 131.216 14.2273C131.22 13.7879 131.127 13.3977 130.938 13.0568C130.748 12.7159 130.489 12.4489 130.159 12.2557C129.83 12.0587 129.451 11.9602 129.023 11.9602C128.674 11.9564 128.331 12.0208 127.994 12.1534C127.657 12.286 127.39 12.4602 127.193 12.6761L125.29 12.3636L125.898 6.36364H132.648V8.125H127.642L127.307 11.2102H127.375C127.591 10.9564 127.896 10.7462 128.29 10.5795C128.684 10.4091 129.116 10.3239 129.585 10.3239C130.29 10.3239 130.919 10.4905 131.472 10.8239C132.025 11.1534 132.46 11.608 132.778 12.1875C133.097 12.767 133.256 13.4299 133.256 14.1761C133.256 14.9451 133.078 15.6307 132.722 16.233C132.369 16.8314 131.879 17.303 131.25 17.6477C130.625 17.9886 129.902 18.1591 129.08 18.1591ZM136.058 18.125C135.714 18.125 135.418 18.0038 135.172 17.7614C134.926 17.5189 134.804 17.2235 134.808 16.875C134.804 16.5341 134.926 16.2424 135.172 16C135.418 15.7576 135.714 15.6364 136.058 15.6364C136.392 15.6364 136.681 15.7576 136.928 16C137.178 16.2424 137.304 16.5341 137.308 16.875C137.304 17.1061 137.244 17.3163 137.126 17.5057C137.013 17.6951 136.861 17.8466 136.672 17.9602C136.486 18.0701 136.282 18.125 136.058 18.125ZM143.257 18.2216C142.321 18.2216 141.518 17.9848 140.848 17.5114C140.181 17.0341 139.668 16.3466 139.308 15.4489C138.952 14.5473 138.774 13.4621 138.774 12.1932C138.778 10.9242 138.958 9.8447 139.314 8.95455C139.674 8.06061 140.187 7.37879 140.854 6.90909C141.524 6.43939 142.325 6.20455 143.257 6.20455C144.189 6.20455 144.99 6.43939 145.661 6.90909C146.331 7.37879 146.844 8.06061 147.2 8.95455C147.56 9.84848 147.74 10.928 147.74 12.1932C147.74 13.4659 147.56 14.553 147.2 15.4545C146.844 16.3523 146.331 17.0379 145.661 17.5114C144.994 17.9848 144.193 18.2216 143.257 18.2216ZM143.257 16.4432C143.984 16.4432 144.558 16.0852 144.979 15.3693C145.403 14.6496 145.615 13.5909 145.615 12.1932C145.615 11.2689 145.518 10.4924 145.325 9.86364C145.132 9.23485 144.859 8.76136 144.507 8.44318C144.155 8.12121 143.738 7.96023 143.257 7.96023C142.534 7.96023 141.962 8.32008 141.541 9.03977C141.121 9.75568 140.909 10.8068 140.905 12.1932C140.901 13.1212 140.994 13.9015 141.183 14.5341C141.376 15.1667 141.649 15.6439 142.001 15.9659C142.354 16.2841 142.772 16.4432 143.257 16.4432Z" fill="#344054"/>
<path d="M5.29545 37.2727V38.6364H0.363636V37.2727H5.29545ZM1.71591 46V36.2614C1.71591 35.7159 1.83523 35.2633 2.07386 34.9034C2.3125 34.5398 2.62879 34.2689 3.02273 34.0909C3.41667 33.9091 3.8447 33.8182 4.30682 33.8182C4.64773 33.8182 4.93939 33.8466 5.18182 33.9034C5.42424 33.9564 5.60417 34.0057 5.72159 34.0511L5.32386 35.4261C5.24432 35.4034 5.14205 35.3769 5.01705 35.3466C4.89205 35.3125 4.74053 35.2955 4.5625 35.2955C4.14962 35.2955 3.85417 35.3977 3.67614 35.6023C3.50189 35.8068 3.41477 36.1023 3.41477 36.4886V46H1.71591ZM7.0483 46V37.2727H8.69034V38.6591H8.78125C8.94034 38.1894 9.22064 37.8201 9.62216 37.5511C10.0275 37.2784 10.4858 37.142 10.9972 37.142C11.1032 37.142 11.2282 37.1458 11.3722 37.1534C11.5199 37.161 11.6354 37.1705 11.7188 37.1818V38.8068C11.6506 38.7879 11.5294 38.767 11.3551 38.7443C11.1809 38.7178 11.0066 38.7045 10.8324 38.7045C10.4309 38.7045 10.0729 38.7898 9.75852 38.9602C9.44792 39.1269 9.2017 39.3598 9.01989 39.6591C8.83807 39.9545 8.74716 40.2917 8.74716 40.6705V46H7.0483ZM16.5526 46.1761C15.7344 46.1761 15.0204 45.9886 14.4105 45.6136C13.8007 45.2386 13.3272 44.714 12.9901 44.0398C12.6529 43.3655 12.4844 42.5777 12.4844 41.6761C12.4844 40.7708 12.6529 39.9792 12.9901 39.3011C13.3272 38.6231 13.8007 38.0966 14.4105 37.7216C15.0204 37.3466 15.7344 37.1591 16.5526 37.1591C17.3707 37.1591 18.0848 37.3466 18.6946 37.7216C19.3045 38.0966 19.7779 38.6231 20.1151 39.3011C20.4522 39.9792 20.6207 40.7708 20.6207 41.6761C20.6207 42.5777 20.4522 43.3655 20.1151 44.0398C19.7779 44.714 19.3045 45.2386 18.6946 45.6136C18.0848 45.9886 17.3707 46.1761 16.5526 46.1761ZM16.5582 44.75C17.0885 44.75 17.5279 44.6098 17.8764 44.3295C18.2249 44.0492 18.4825 43.6761 18.6491 43.2102C18.8196 42.7443 18.9048 42.2311 18.9048 41.6705C18.9048 41.1136 18.8196 40.6023 18.6491 40.1364C18.4825 39.6667 18.2249 39.2898 17.8764 39.0057C17.5279 38.7216 17.0885 38.5795 16.5582 38.5795C16.0241 38.5795 15.581 38.7216 15.2287 39.0057C14.8802 39.2898 14.6207 39.6667 14.4503 40.1364C14.2836 40.6023 14.2003 41.1136 14.2003 41.6705C14.2003 42.2311 14.2836 42.7443 14.4503 43.2102C14.6207 43.6761 14.8802 44.0492 15.2287 44.3295C15.581 44.6098 16.0241 44.75 16.5582 44.75ZM22.517 46V37.2727H24.1477V38.6932H24.2557C24.4375 38.2121 24.7348 37.8371 25.1477 37.5682C25.5606 37.2955 26.0549 37.1591 26.6307 37.1591C27.214 37.1591 27.7027 37.2955 28.0966 37.5682C28.4943 37.8409 28.7879 38.2159 28.9773 38.6932H29.0682C29.2765 38.2273 29.608 37.8561 30.0625 37.5795C30.517 37.2992 31.0587 37.1591 31.6875 37.1591C32.4792 37.1591 33.125 37.4072 33.625 37.9034C34.1288 38.3996 34.3807 39.1477 34.3807 40.1477V46H32.6818V40.3068C32.6818 39.7159 32.5208 39.2879 32.1989 39.0227C31.8769 38.7576 31.4924 38.625 31.0455 38.625C30.4924 38.625 30.0625 38.7955 29.7557 39.1364C29.4489 39.4735 29.2955 39.9072 29.2955 40.4375V46H27.6023V40.1989C27.6023 39.7254 27.4545 39.3447 27.1591 39.0568C26.8636 38.7689 26.4792 38.625 26.0057 38.625C25.6837 38.625 25.3864 38.7102 25.1136 38.8807C24.8447 39.0473 24.6269 39.2803 24.4602 39.5795C24.2973 39.8788 24.2159 40.2254 24.2159 40.6193V46H22.517ZM44.9205 46.1591C44.1402 46.1591 43.4432 46.0246 42.8295 45.7557C42.2197 45.4867 41.7367 45.1136 41.3807 44.6364C41.0284 44.1553 40.839 43.5985 40.8125 42.9659H42.5966C42.6193 43.3106 42.7348 43.6098 42.9432 43.8636C43.1553 44.1136 43.4318 44.3068 43.7727 44.4432C44.1136 44.5795 44.4924 44.6477 44.9091 44.6477C45.3674 44.6477 45.7727 44.5682 46.125 44.4091C46.4811 44.25 46.7595 44.0284 46.9602 43.7443C47.161 43.4564 47.2614 43.125 47.2614 42.75C47.2614 42.3598 47.161 42.017 46.9602 41.7216C46.7633 41.4223 46.4735 41.1875 46.0909 41.017C45.7121 40.8466 45.2538 40.7614 44.7159 40.7614H43.733V39.3295H44.7159C45.1477 39.3295 45.5265 39.2519 45.8523 39.0966C46.1818 38.9413 46.4394 38.7254 46.625 38.4489C46.8106 38.1686 46.9034 37.8409 46.9034 37.4659C46.9034 37.1061 46.822 36.7936 46.6591 36.5284C46.5 36.2595 46.2727 36.0492 45.9773 35.8977C45.6856 35.7462 45.3409 35.6705 44.9432 35.6705C44.5644 35.6705 44.2102 35.7405 43.8807 35.8807C43.5549 36.017 43.2898 36.214 43.0852 36.4716C42.8807 36.7254 42.7708 37.0303 42.7557 37.3864H41.0568C41.0758 36.7576 41.2614 36.2045 41.6136 35.7273C41.9697 35.25 42.4394 34.8769 43.0227 34.608C43.6061 34.339 44.2538 34.2045 44.9659 34.2045C45.7121 34.2045 46.3561 34.3504 46.8977 34.642C47.4432 34.9299 47.8636 35.3144 48.1591 35.7955C48.4583 36.2765 48.6061 36.803 48.6023 37.375C48.6061 38.0265 48.4242 38.5795 48.0568 39.0341C47.6932 39.4886 47.2083 39.7936 46.6023 39.9489V40.0398C47.375 40.1572 47.9735 40.464 48.3977 40.9602C48.8258 41.4564 49.0379 42.072 49.0341 42.8068C49.0379 43.447 48.8598 44.0208 48.5 44.5284C48.1439 45.036 47.6572 45.4356 47.0398 45.7273C46.4223 46.0152 45.7159 46.1591 44.9205 46.1591ZM53.071 44.4091L52.9858 45.0284C52.929 45.483 52.8324 45.9564 52.696 46.4489C52.5634 46.9451 52.4252 47.4053 52.2812 47.8295C52.1411 48.2538 52.0256 48.5909 51.9347 48.8409H50.7301C50.7794 48.6061 50.8475 48.2879 50.9347 47.8864C51.0218 47.4886 51.107 47.0436 51.1903 46.5511C51.2737 46.0587 51.3362 45.5568 51.3778 45.0455L51.4347 44.4091H53.071ZM59.0767 46.1932C58.179 46.1894 57.4119 45.9527 56.7756 45.483C56.1392 45.0133 55.6525 44.3295 55.3153 43.4318C54.9782 42.5341 54.8097 41.4527 54.8097 40.1875C54.8097 38.9261 54.9782 37.8485 55.3153 36.9545C55.6563 36.0606 56.1449 35.3788 56.7812 34.9091C57.4214 34.4394 58.1866 34.2045 59.0767 34.2045C59.9669 34.2045 60.7301 34.4413 61.3665 34.9148C62.0028 35.3845 62.4896 36.0663 62.8267 36.9602C63.1676 37.8504 63.3381 38.9261 63.3381 40.1875C63.3381 41.4564 63.1695 42.5398 62.8324 43.4375C62.4953 44.3314 62.0085 45.0152 61.3722 45.4886C60.7358 45.9583 59.9706 46.1932 59.0767 46.1932ZM59.0767 44.6761C59.8646 44.6761 60.4801 44.2917 60.9233 43.5227C61.3703 42.7538 61.5938 41.642 61.5938 40.1875C61.5938 39.2216 61.4915 38.4053 61.2869 37.7386C61.0862 37.0682 60.7964 36.5606 60.4176 36.2159C60.0426 35.8674 59.5956 35.6932 59.0767 35.6932C58.2926 35.6932 57.6771 36.0795 57.2301 36.8523C56.7831 37.625 56.5578 38.7367 56.554 40.1875C56.554 41.1572 56.6544 41.9773 56.8551 42.6477C57.0597 43.3144 57.3494 43.8201 57.7244 44.1648C58.0994 44.5057 58.5502 44.6761 59.0767 44.6761ZM69.4048 46.1932C68.5071 46.1894 67.7401 45.9527 67.1037 45.483C66.4673 45.0133 65.9806 44.3295 65.6435 43.4318C65.3063 42.5341 65.1378 41.4527 65.1378 40.1875C65.1378 38.9261 65.3063 37.8485 65.6435 36.9545C65.9844 36.0606 66.473 35.3788 67.1094 34.9091C67.7495 34.4394 68.5147 34.2045 69.4048 34.2045C70.295 34.2045 71.0582 34.4413 71.6946 34.9148C72.331 35.3845 72.8177 36.0663 73.1548 36.9602C73.4957 37.8504 73.6662 38.9261 73.6662 40.1875C73.6662 41.4564 73.4976 42.5398 73.1605 43.4375C72.8234 44.3314 72.3366 45.0152 71.7003 45.4886C71.0639 45.9583 70.2988 46.1932 69.4048 46.1932ZM69.4048 44.6761C70.1927 44.6761 70.8082 44.2917 71.2514 43.5227C71.6984 42.7538 71.9219 41.642 71.9219 40.1875C71.9219 39.2216 71.8196 38.4053 71.6151 37.7386C71.4143 37.0682 71.1245 36.5606 70.7457 36.2159C70.3707 35.8674 69.9238 35.6932 69.4048 35.6932C68.6207 35.6932 68.0052 36.0795 67.5582 36.8523C67.1113 37.625 66.8859 38.7367 66.8821 40.1875C66.8821 41.1572 66.9825 41.9773 67.1832 42.6477C67.3878 43.3144 67.6776 43.8201 68.0526 44.1648C68.4276 44.5057 68.8783 44.6761 69.4048 44.6761ZM79.733 46.1932C78.8352 46.1894 78.0682 45.9527 77.4318 45.483C76.7955 45.0133 76.3087 44.3295 75.9716 43.4318C75.6345 42.5341 75.4659 41.4527 75.4659 40.1875C75.4659 38.9261 75.6345 37.8485 75.9716 36.9545C76.3125 36.0606 76.8011 35.3788 77.4375 34.9091C78.0777 34.4394 78.8428 34.2045 79.733 34.2045C80.6231 34.2045 81.3864 34.4413 82.0227 34.9148C82.6591 35.3845 83.1458 36.0663 83.483 36.9602C83.8239 37.8504 83.9943 38.9261 83.9943 40.1875C83.9943 41.4564 83.8258 42.5398 83.4886 43.4375C83.1515 44.3314 82.6648 45.0152 82.0284 45.4886C81.392 45.9583 80.6269 46.1932 79.733 46.1932ZM79.733 44.6761C80.5208 44.6761 81.1364 44.2917 81.5795 43.5227C82.0265 42.7538 82.25 41.642 82.25 40.1875C82.25 39.2216 82.1477 38.4053 81.9432 37.7386C81.7424 37.0682 81.4527 36.5606 81.0739 36.2159C80.6989 35.8674 80.2519 35.6932 79.733 35.6932C78.9489 35.6932 78.3333 36.0795 77.8864 36.8523C77.4394 37.625 77.214 38.7367 77.2102 40.1875C77.2102 41.1572 77.3106 41.9773 77.5114 42.6477C77.7159 43.3144 78.0057 43.8201 78.3807 44.1648C78.7557 44.5057 79.2064 44.6761 79.733 44.6761ZM89.4531 44.0455V36.3636H90.9815V44.0455H89.4531ZM86.3793 40.9659V39.4432H94.0611V40.9659H86.3793ZM100.923 46V37.2727H102.565V38.6591H102.656C102.815 38.1894 103.096 37.8201 103.497 37.5511C103.902 37.2784 104.361 37.142 104.872 37.142C104.978 37.142 105.103 37.1458 105.247 37.1534C105.395 37.161 105.51 37.1705 105.594 37.1818V38.8068C105.526 38.7879 105.404 38.767 105.23 38.7443C105.056 38.7178 104.882 38.7045 104.707 38.7045C104.306 38.7045 103.948 38.7898 103.634 38.9602C103.323 39.1269 103.077 39.3598 102.895 39.6591C102.713 39.9545 102.622 40.2917 102.622 40.6705V46H100.923ZM110.513 46.1761C109.653 46.1761 108.912 45.9924 108.291 45.625C107.674 45.2538 107.196 44.733 106.859 44.0625C106.526 43.3883 106.359 42.5985 106.359 41.6932C106.359 40.7992 106.526 40.0114 106.859 39.3295C107.196 38.6477 107.666 38.1155 108.268 37.733C108.875 37.3504 109.583 37.1591 110.393 37.1591C110.886 37.1591 111.363 37.2405 111.825 37.4034C112.287 37.5663 112.702 37.822 113.07 38.1705C113.437 38.5189 113.727 38.9716 113.939 39.5284C114.151 40.0814 114.257 40.7538 114.257 41.5455V42.1477H107.32V40.875H112.592C112.592 40.428 112.501 40.0322 112.32 39.6875C112.138 39.339 111.882 39.0644 111.553 38.8636C111.227 38.6629 110.844 38.5625 110.405 38.5625C109.928 38.5625 109.511 38.6799 109.155 38.9148C108.803 39.1458 108.53 39.4489 108.337 39.8239C108.147 40.1951 108.053 40.5985 108.053 41.0341V42.0284C108.053 42.6117 108.155 43.108 108.359 43.517C108.568 43.9261 108.857 44.2386 109.229 44.4545C109.6 44.6667 110.034 44.7727 110.53 44.7727C110.852 44.7727 111.145 44.7273 111.411 44.6364C111.676 44.5417 111.905 44.4015 112.098 44.2159C112.291 44.0303 112.439 43.8011 112.541 43.5284L114.149 43.8182C114.02 44.2917 113.789 44.7064 113.456 45.0625C113.126 45.4148 112.712 45.6894 112.212 45.8864C111.715 46.0795 111.149 46.1761 110.513 46.1761ZM123.358 37.2727L120.193 46H118.375L115.205 37.2727H117.028L119.239 43.9886H119.33L121.534 37.2727H123.358ZM124.955 46V37.2727H126.653V46H124.955ZM125.812 35.9261C125.517 35.9261 125.263 35.8277 125.051 35.6307C124.843 35.4299 124.739 35.1913 124.739 34.9148C124.739 34.6345 124.843 34.3958 125.051 34.1989C125.263 33.9981 125.517 33.8977 125.812 33.8977C126.108 33.8977 126.36 33.9981 126.568 34.1989C126.78 34.3958 126.886 34.6345 126.886 34.9148C126.886 35.1913 126.78 35.4299 126.568 35.6307C126.36 35.8277 126.108 35.9261 125.812 35.9261ZM132.7 46.1761C131.84 46.1761 131.1 45.9924 130.479 45.625C129.861 45.2538 129.384 44.733 129.047 44.0625C128.714 43.3883 128.547 42.5985 128.547 41.6932C128.547 40.7992 128.714 40.0114 129.047 39.3295C129.384 38.6477 129.854 38.1155 130.456 37.733C131.062 37.3504 131.77 37.1591 132.581 37.1591C133.073 37.1591 133.551 37.2405 134.013 37.4034C134.475 37.5663 134.89 37.822 135.257 38.1705C135.625 38.5189 135.914 38.9716 136.126 39.5284C136.339 40.0814 136.445 40.7538 136.445 41.5455V42.1477H129.507V40.875H134.78C134.78 40.428 134.689 40.0322 134.507 39.6875C134.325 39.339 134.07 39.0644 133.74 38.8636C133.414 38.6629 133.032 38.5625 132.592 38.5625C132.115 38.5625 131.698 38.6799 131.342 38.9148C130.99 39.1458 130.717 39.4489 130.524 39.8239C130.335 40.1951 130.24 40.5985 130.24 41.0341V42.0284C130.24 42.6117 130.342 43.108 130.547 43.517C130.755 43.9261 131.045 44.2386 131.416 44.4545C131.787 44.6667 132.221 44.7727 132.717 44.7727C133.039 44.7727 133.333 44.7273 133.598 44.6364C133.863 44.5417 134.092 44.4015 134.286 44.2159C134.479 44.0303 134.626 43.8011 134.729 43.5284L136.337 43.8182C136.208 44.2917 135.977 44.7064 135.643 45.0625C135.314 45.4148 134.899 45.6894 134.399 45.8864C133.903 46.0795 133.337 46.1761 132.7 46.1761ZM140.206 46L137.638 37.2727H139.393L141.104 43.6818H141.189L142.905 37.2727H144.661L146.365 43.6534H146.45L148.149 37.2727H149.905L147.342 46H145.609L143.837 39.6989H143.706L141.933 46H140.206ZM158.057 39.4034L156.517 39.6761C156.453 39.4792 156.35 39.2917 156.21 39.1136C156.074 38.9356 155.888 38.7898 155.653 38.6761C155.419 38.5625 155.125 38.5057 154.773 38.5057C154.292 38.5057 153.89 38.6136 153.568 38.8295C153.246 39.0417 153.085 39.3163 153.085 39.6534C153.085 39.9451 153.193 40.1799 153.409 40.358C153.625 40.536 153.973 40.6818 154.455 40.7955L155.841 41.1136C156.644 41.2992 157.242 41.5852 157.636 41.9716C158.03 42.358 158.227 42.8598 158.227 43.4773C158.227 44 158.076 44.4659 157.773 44.875C157.473 45.2803 157.055 45.5985 156.517 45.8295C155.983 46.0606 155.364 46.1761 154.659 46.1761C153.682 46.1761 152.884 45.9678 152.267 45.5511C151.65 45.1307 151.271 44.5341 151.131 43.7614L152.773 43.5114C152.875 43.9394 153.085 44.2633 153.403 44.483C153.722 44.6989 154.136 44.8068 154.648 44.8068C155.205 44.8068 155.65 44.6913 155.983 44.4602C156.316 44.2254 156.483 43.9394 156.483 43.6023C156.483 43.3295 156.381 43.1004 156.176 42.9148C155.975 42.7292 155.667 42.589 155.25 42.4943L153.773 42.1705C152.958 41.9848 152.356 41.6894 151.966 41.2841C151.58 40.8788 151.386 40.3655 151.386 39.7443C151.386 39.2292 151.53 38.7784 151.818 38.392C152.106 38.0057 152.504 37.7045 153.011 37.4886C153.519 37.2689 154.1 37.1591 154.756 37.1591C155.699 37.1591 156.441 37.3636 156.983 37.7727C157.525 38.178 157.883 38.7216 158.057 39.4034Z" fill="#475467"/>
<defs>
<clipPath id="clip0_2_8954">
<rect width="20" height="20" fill="white" transform="translate(0 2)"/>
</clipPath>
<clipPath id="clip1_2_8954">
<rect width="20" height="20" fill="white" transform="translate(0 2)"/>
</clipPath>
<clipPath id="clip2_2_8954">
<rect width="20" height="20" fill="white" transform="translate(24 2)"/>
</clipPath>
<clipPath id="clip3_2_8954">
<rect width="20" height="20" fill="white" transform="translate(24 2)"/>
</clipPath>
<clipPath id="clip4_2_8954">
<rect width="20" height="20" fill="white" transform="translate(48 2)"/>
</clipPath>
<clipPath id="clip5_2_8954">
<rect width="20" height="20" fill="white" transform="translate(48 2)"/>
</clipPath>
<clipPath id="clip6_2_8954">
<rect width="20" height="20" fill="white" transform="translate(72 2)"/>
</clipPath>
<clipPath id="clip7_2_8954">
<rect width="20" height="20" fill="white" transform="translate(72 2)"/>
</clipPath>
<clipPath id="clip8_2_8954">
<rect width="20" height="20" fill="white" transform="translate(96 2)"/>
</clipPath>
<clipPath id="clip9_2_8954">
<rect width="20" height="20" fill="white" transform="translate(96 2)"/>
</clipPath>
</defs>
</svg>
