<svg width="1200" height="43" viewBox="0 0 1372 43" fill="none" xmlns="http://www.w3.org/2000/svg">
<g clip-path="url(#clip0_2_8855)">
<path d="M32.7759 8.1442C32.7466 7.93061 32.56 7.81211 32.4051 7.79921C32.2515 7.78631 29.2405 7.74056 29.2405 7.74056C29.2405 7.74056 26.7223 5.29517 26.4735 5.0464C26.2248 4.79764 25.739 4.87274 25.5501 4.92906C25.5478 4.93024 25.0772 5.07574 24.2852 5.32098C24.1526 4.89152 23.9577 4.36348 23.6797 3.8331C22.7832 2.12227 21.4702 1.21757 19.8837 1.21523C19.8813 1.21523 19.8801 1.21523 19.8778 1.21523C19.7675 1.21523 19.6584 1.22579 19.5481 1.23517C19.5012 1.17885 19.4542 1.1237 19.405 1.06972C18.7138 0.330476 17.8279 -0.0297603 16.766 0.00192169C14.7172 0.0605921 12.6767 1.54026 11.0221 4.16869C9.85811 6.01798 8.97217 8.34137 8.72108 10.1402C6.36838 10.8688 4.72326 11.3781 4.68688 11.3899C3.49939 11.763 3.46185 11.7993 3.30696 12.9188C3.19196 13.7648 0.0847778 37.7916 0.0847778 37.7916L26.1239 42.2951L37.4097 39.4894C37.4097 39.4894 32.8052 8.35779 32.7759 8.1442ZM22.9815 5.72463C22.3819 5.91003 21.7001 6.12125 20.9609 6.35006C20.9456 5.31277 20.8224 3.86948 20.339 2.62214C21.8937 2.91667 22.6588 4.67561 22.9815 5.72463ZM19.5985 6.77249C18.2339 7.19489 16.7448 7.65604 15.2511 8.1184C15.6711 6.50964 16.4679 4.90794 17.4466 3.85774C17.8103 3.467 18.3195 3.03166 18.9227 2.7829C19.4894 3.96569 19.6126 5.64015 19.5985 6.77249ZM16.807 1.36542C17.2881 1.35486 17.6929 1.46047 18.0391 1.68811C17.4853 1.9756 16.9502 2.38864 16.448 2.92723C15.1466 4.32359 14.1492 6.49087 13.7514 8.58188C12.5111 8.96557 11.2978 9.34228 10.1808 9.68727C10.886 6.39583 13.6447 1.45695 16.807 1.36542Z" fill="#95BF47"/>
<path d="M32.4063 7.80041C32.2526 7.78751 29.2416 7.74176 29.2416 7.74176C29.2416 7.74176 26.7235 5.29636 26.4747 5.0476C26.382 4.95489 26.2565 4.90678 26.125 4.88684L26.1262 42.294L37.4109 39.4895C37.4109 39.4895 32.8064 8.35899 32.7771 8.1454C32.7477 7.93181 32.56 7.81331 32.4063 7.80041Z" fill="#5E8E3E"/>
<path d="M19.8699 13.6029L18.5593 18.5065C18.5593 18.5065 17.0972 17.8412 15.3641 17.9503C12.8224 18.1111 12.7954 19.714 12.8213 20.1165C12.9597 22.3096 18.7294 22.7883 19.0533 27.9255C19.3079 31.9667 16.9094 34.7313 13.4537 34.9495C9.30573 35.2112 7.02228 32.7646 7.02228 32.7646L7.90118 29.0262C7.90118 29.0262 10.1998 30.7605 12.0398 30.6443C13.2414 30.568 13.6708 29.5906 13.6274 28.8994C13.4467 26.0386 8.74835 26.2076 8.45151 21.5069C8.20154 17.5514 10.7995 13.543 16.5316 13.1816C18.7399 13.0397 19.8699 13.6029 19.8699 13.6029Z" fill="white"/>
<path d="M52.2714 23.8711C50.9737 23.167 50.3068 22.5735 50.3068 21.7576C50.3068 20.7195 51.2332 20.0525 52.6799 20.0525C54.364 20.0525 55.8676 20.7567 55.8676 20.7567L57.0536 17.1232C57.0536 17.1232 55.9631 16.2701 52.7532 16.2701C48.2864 16.2701 45.1906 18.8282 45.1906 22.4244C45.1906 24.4635 46.6361 26.0207 48.5645 27.1322C50.1218 28.0213 50.6781 28.6522 50.6781 29.5786C50.6781 30.5423 49.8995 31.3209 48.454 31.3209C46.2997 31.3209 44.2653 30.2082 44.2653 30.2082L43.0049 33.8417C43.0049 33.8417 44.8845 35.1022 48.0466 35.1022C52.6438 35.1022 55.9433 32.8408 55.9433 28.7627C55.9421 26.577 54.2744 25.0198 52.2714 23.8711Z" fill="black"/>
<path d="M70.5857 16.234C68.3242 16.234 66.5447 17.3094 65.1737 18.9399L65.0992 18.9026L67.0638 8.63409H61.9475L56.9803 34.7693H62.0965L63.8015 25.8356C64.4684 22.4617 66.2107 20.3866 67.8424 20.3866C68.9911 20.3866 69.4369 21.1651 69.4369 22.2778C69.4369 22.9819 69.3624 23.835 69.2145 24.5392L67.2872 34.7705H72.4037L74.405 24.2051C74.6277 23.0925 74.7765 21.7588 74.7765 20.8684C74.7744 17.9762 73.2546 16.234 70.5857 16.234Z" fill="black"/>
<path d="M86.3404 16.2339C80.1857 16.2339 76.1092 21.7948 76.1092 27.9852C76.1092 31.9516 78.5553 35.1394 83.1527 35.1394C89.1953 35.1394 93.2732 29.7275 93.2732 23.388C93.2732 19.7184 91.1225 16.2339 86.3404 16.2339ZM83.8196 31.2113C82.077 31.2113 81.3355 29.7286 81.3355 27.8746C81.3355 24.9464 82.856 20.1642 85.6362 20.1642C87.4527 20.1642 88.0449 21.7214 88.0449 23.2414C88.0449 26.3919 86.5265 31.2113 83.8196 31.2113Z" fill="black"/>
<path d="M106.36 16.234C102.906 16.234 100.947 19.274 100.947 19.274H100.873L101.17 16.5308H96.6473C96.4252 18.3848 96.0164 21.2013 95.6096 23.3148L92.0505 42.0352H97.1668L98.5745 34.4726H98.6866C98.6866 34.4726 99.7362 35.1395 101.69 35.1395C107.695 35.1395 111.624 28.9863 111.624 22.7574C111.624 19.3113 110.103 16.234 106.36 16.234ZM101.466 31.2848C100.138 31.2848 99.352 30.5434 99.352 30.5434L100.205 25.7613C100.799 22.5735 102.466 20.4599 104.246 20.4599C105.803 20.4599 106.285 21.9054 106.285 23.2776C106.285 26.5771 104.32 31.2848 101.466 31.2848Z" fill="black"/>
<path d="M118.927 8.89368C117.296 8.89368 115.999 10.1914 115.999 11.8591C115.999 13.3791 116.962 14.4173 118.408 14.4173H118.482C120.077 14.4173 121.448 13.3419 121.485 11.4518C121.485 9.96903 120.484 8.89368 118.927 8.89368Z" fill="black"/>
<path d="M111.772 34.7694H116.887L120.373 16.6426H115.219L111.772 34.7694Z" fill="black"/>
<path d="M133.385 16.6051H129.826L130.011 15.752C130.308 14.0098 131.346 12.4525 133.051 12.4525C133.961 12.4525 134.682 12.7121 134.682 12.7121L135.683 8.70851C135.683 8.70851 134.793 8.26392 132.902 8.26392C131.085 8.26392 129.27 8.78295 127.897 9.9689C126.155 11.4517 125.339 13.6013 124.932 15.752L124.784 16.6051H122.411L121.669 20.461H124.043L121.337 34.7704H126.453L129.159 20.461H132.681L133.385 16.6051Z" fill="black"/>
<path d="M145.693 16.6426C145.693 16.6426 142.495 24.6998 141.059 29.098H140.984C140.887 27.6816 139.724 16.6426 139.724 16.6426H134.348L137.427 33.2866C137.501 33.6567 137.464 33.8802 137.315 34.1397C136.721 35.2884 135.721 36.4011 134.534 37.2169C133.571 37.921 132.496 38.3656 131.643 38.6624L133.052 43C134.09 42.7777 136.239 41.9247 138.056 40.2196C140.392 38.0327 142.541 34.6588 144.765 30.0616L151.031 16.6414H145.693V16.6426Z" fill="black"/>
</g>
<g clip-path="url(#clip1_2_8855)">
<path d="M256.522 14.4338C250.064 14.4338 245.018 19.3739 245.018 25.9872C245.018 32.6006 249.937 37.4984 256.522 37.4984C263.108 37.4984 268.112 32.516 268.112 25.9449C268.112 19.4162 263.194 14.4338 256.522 14.4338ZM256.566 32.7323C252.888 32.7323 250.193 29.8541 250.193 25.9888C250.193 22.0797 252.845 19.2031 256.522 19.2031C260.244 19.2031 262.937 22.1236 262.937 25.9888C262.937 29.8541 260.244 32.7323 256.566 32.7323ZM269.523 19.4601H272.731V37.0707H277.863V14.8631H269.523V19.4601ZM232.103 19.2015C234.798 19.2015 236.936 20.8764 237.748 23.3676H243.18C242.195 18.0421 237.833 14.4338 232.147 14.4338C225.688 14.4338 220.642 19.3739 220.642 25.9888C220.642 32.6038 225.561 37.5 232.147 37.5C237.706 37.5 242.154 33.8917 243.138 28.5223H237.748C236.978 31.0135 234.84 32.7323 232.145 32.7323C228.424 32.7323 225.816 29.8541 225.816 25.9888C225.817 22.0797 228.383 19.2015 232.103 19.2015ZM367.029 23.8408L363.266 23.283C361.47 23.0261 360.187 22.4244 360.187 21.0065C360.187 19.4601 361.855 18.6877 364.121 18.6877C366.601 18.6877 368.185 19.7609 368.527 21.522H373.487C372.931 17.0551 369.509 14.4354 364.25 14.4354C358.818 14.4354 355.226 17.2274 355.226 21.1788C355.226 24.9579 357.579 27.1499 362.325 27.8361L366.088 28.3938C367.928 28.6508 368.954 29.3825 368.954 30.7566C368.954 32.5176 367.158 33.2478 364.678 33.2478C361.641 33.2478 359.93 32.0022 359.674 30.1126H354.627C355.099 34.4511 358.476 37.5 364.634 37.5C370.237 37.5 373.957 34.9226 373.957 30.498C373.957 26.5466 371.264 24.4847 367.029 23.8408ZM275.297 5.71465C273.415 5.71465 272.003 7.0887 272.003 8.97823C272.003 10.8678 273.414 12.2418 275.297 12.2418C277.178 12.2418 278.59 10.8678 278.59 8.97823C278.59 7.0887 277.178 5.71465 275.297 5.71465ZM350.608 22.4667C350.608 17.6567 347.7 14.4354 341.541 14.4354C335.726 14.4354 332.475 17.3998 331.833 21.9529H336.923C337.18 20.1918 338.548 18.7316 341.456 18.7316C344.065 18.7316 345.348 19.891 345.348 21.3089C345.348 23.1562 342.995 23.6278 340.087 23.9286C336.153 24.3579 331.278 25.7319 331.278 30.8867C331.278 34.882 334.23 37.4577 338.934 37.4577C342.611 37.4577 344.921 35.9113 346.076 33.4624C346.247 35.6528 347.872 37.0707 350.14 37.0707H353.133V32.4754H350.609V22.4667H350.608ZM345.561 28.0507C345.561 31.0151 342.995 33.2055 339.873 33.2055C337.948 33.2055 336.323 32.3892 336.323 30.672C336.323 28.4817 338.932 27.88 341.327 27.6231C343.636 27.4084 344.919 26.893 345.561 25.9043V28.0507ZM318.32 14.4338C315.454 14.4338 313.059 15.6371 311.348 17.6551V5.5H306.216V37.0707H311.263V34.1502C312.973 36.2544 315.412 37.5 318.32 37.5C324.478 37.5 329.14 32.6038 329.14 25.9888C329.14 19.3739 324.392 14.4338 318.32 14.4338ZM317.55 32.7323C313.872 32.7323 311.177 29.8541 311.177 25.9888C311.177 22.1236 313.914 19.2031 317.592 19.2031C321.313 19.2031 323.921 22.0813 323.921 25.9888C323.921 29.8541 321.228 32.7323 317.55 32.7323ZM293.942 14.4338C290.607 14.4338 288.425 15.8078 287.142 17.7413V14.8631H282.052V37.0691H287.184V25.0002C287.184 21.6065 289.322 19.2015 292.487 19.2015C295.438 19.2015 297.276 21.3057 297.276 24.3562V37.0707H302.408V23.9709C302.41 18.3852 299.545 14.4338 293.942 14.4338ZM398.42 25.2587C398.42 18.9023 393.801 14.4354 387.6 14.4354C381.014 14.4354 376.181 19.4178 376.181 25.9888C376.181 32.9046 381.356 37.5 387.685 37.5C393.032 37.5 397.223 34.321 398.291 29.8118H392.944C392.175 31.7875 390.293 32.9046 387.769 32.9046C384.475 32.9046 381.995 30.8428 381.44 27.2344H398.418V25.2587H398.42ZM381.74 23.5399C382.553 20.4471 384.863 18.9446 387.514 18.9446C390.422 18.9446 392.646 20.6195 393.159 23.5399H381.74Z" fill="#0052FF"/>
</g>
<g clip-path="url(#clip2_2_8855)">
<path d="M488.654 10.2649L478.037 17.0297L488.654 23.7946L478.037 30.5594L467.42 23.758L478.037 16.9931L467.42 10.2649L478.037 3.5L488.654 10.2649ZM477.982 32.7351L488.599 25.9703L499.216 32.7351L488.599 39.5L477.982 32.7351ZM488.654 23.758L499.271 16.9931L488.654 10.2649L499.216 3.5L509.833 10.2649L499.216 17.0297L509.833 23.7946L499.216 30.5594L488.654 23.758Z" fill="#0061FF"/>
<path d="M518.162 10.2649H526.747C532.22 10.2649 536.742 13.4279 536.742 20.6499V22.1674C536.742 29.4442 532.513 32.7169 526.912 32.7169H518.162V10.2649ZM522.958 14.3421V28.6214H526.637C529.749 28.6214 531.836 26.592 531.836 22.076V20.8876C531.836 16.3716 529.639 14.3421 526.473 14.3421H522.958ZM539.286 14.5615H543.13L543.753 18.785C544.485 15.9145 546.352 14.3787 549.738 14.3787H550.928V19.2238H548.951C545.052 19.2238 544.1 20.5767 544.1 24.4163V32.7718H539.359V14.5615H539.286ZM551.88 24.0323V23.5204C551.88 17.432 555.779 14.1044 561.088 14.1044C566.506 14.1044 570.295 17.432 570.295 23.5204V24.0323C570.295 30.011 566.616 33.2289 561.088 33.2289C555.212 33.174 551.88 30.0293 551.88 24.0323ZM565.444 23.9775V23.5204C565.444 20.1379 563.742 18.1085 561.033 18.1085C558.378 18.1085 556.621 19.9734 556.621 23.5204V23.9775C556.621 27.2502 558.323 29.1151 561.033 29.1151C563.742 29.0602 565.444 27.2502 565.444 23.9775ZM572.784 14.5615H576.738L577.196 17.9988C578.148 15.6951 580.18 14.1044 583.182 14.1044C587.813 14.1044 590.87 17.432 590.87 23.5935V24.1054C590.87 30.0841 587.483 33.2471 583.182 33.2471C580.308 33.2471 578.331 31.949 577.361 29.8647V39.0613H572.73L572.784 14.5615ZM586.056 23.9775V23.5752C586.056 19.9551 584.189 18.1633 581.699 18.1633C579.045 18.1633 577.288 20.1928 577.288 23.5752V23.9226C577.288 27.1405 578.99 29.1699 581.644 29.1699C584.372 29.1151 586.056 27.3782 586.056 23.9775ZM597.881 29.4076L597.478 32.7352H593.414V8.47314H598.045V17.7794C599.071 15.4025 601.102 14.1044 603.976 14.1044C608.333 14.1593 611.555 17.1578 611.555 23.1913V23.7581C611.555 29.7916 608.498 33.2471 603.867 33.2471C600.81 33.174 598.833 31.7662 597.881 29.4076ZM606.686 23.7581V23.301C606.686 19.9734 604.873 18.1085 602.329 18.1085C599.73 18.1085 597.917 20.1928 597.917 23.3558V23.7581C597.917 27.1405 599.675 29.1151 602.274 29.1151C605.056 29.1151 606.686 27.3782 606.686 23.7581ZM613.587 24.0323V23.5204C613.587 17.432 617.485 14.1044 622.794 14.1044C628.212 14.1044 632.001 17.432 632.001 23.5204V24.0323C632.001 30.011 628.267 33.2289 622.794 33.2289C616.918 33.174 613.587 30.0293 613.587 24.0323ZM627.187 23.9775V23.5204C627.187 20.1379 625.485 18.1085 622.776 18.1085C620.121 18.1085 618.364 19.9734 618.364 23.5204V23.9775C618.364 27.2502 620.067 29.1151 622.776 29.1151C625.503 29.0602 627.187 27.2502 627.187 23.9775ZM638.207 23.301L631.818 14.5615H637.292L640.971 20.0282L644.705 14.5615H650.123L643.643 23.2461L650.471 32.7352H645.108L640.934 26.7017L636.871 32.7352H631.269L638.207 23.301Z" fill="black"/>
</g>
<g clip-path="url(#clip3_2_8855)">
<path d="M779.503 15.3648C779.503 14.5325 778.861 13.8497 777.962 13.8497C777.064 13.8497 776.422 14.5325 776.422 15.3648V27.6563C776.422 28.4886 777.064 29.1715 777.962 29.1715C778.882 29.1715 779.503 28.4886 779.503 27.6563V15.3648Z" fill="black"/>
<path d="M794.674 13.8496C793.776 13.8496 793.155 14.5325 793.155 15.3647V20.6143L793.241 25.309L791.379 20.9129L788.94 15.9195C788.191 14.3617 787.335 13.8496 786.115 13.8496C784.318 13.8496 783.526 14.9806 783.526 16.6024V27.6562C783.526 28.4886 784.147 29.1715 785.046 29.1715C785.944 29.1715 786.565 28.4886 786.565 27.6562L786.543 22.4709L786.479 17.1572L788.469 22.0226L790.93 27.1014C791.7 28.7232 792.513 29.1928 793.754 29.1928C795.359 29.1928 796.193 28.2111 796.193 26.3973V15.3647C796.193 14.5325 795.573 13.8496 794.674 13.8496Z" fill="black"/>
<path d="M807.554 16.9866L811.042 17.072C811.855 17.0933 812.497 16.4745 812.497 15.5782C812.497 14.6819 811.855 14.0631 811.042 14.0631L800.942 14.0417C800.151 14.0417 799.487 14.6606 799.487 15.5569C799.487 16.4531 800.151 17.072 800.942 17.0506L804.451 16.9866V27.6563C804.451 28.4887 805.093 29.1716 805.992 29.1716C806.912 29.1716 807.554 28.4887 807.554 27.6563V16.9866Z" fill="black"/>
<path d="M817.893 28.9793H825.403C826.195 28.9793 826.837 28.3818 826.837 27.5495C826.837 26.696 826.195 26.0984 825.403 26.0984L818.877 26.1198V22.556H824.526C825.296 22.556 825.917 21.9798 825.917 21.1904C825.917 20.3794 825.296 19.8032 824.526 19.8032L818.877 19.8459V16.9011H825.403C826.195 16.9011 826.837 16.3036 826.837 15.45C826.837 14.5964 826.195 14.0203 825.403 14.0203L817.914 14.0416C816.545 14.0416 815.774 14.8098 815.774 16.1756V26.8454C815.774 28.211 816.545 28.9793 817.893 28.9793Z" fill="black"/>
<path d="M839.07 22.8976C841.102 22.3642 842.301 20.7851 842.301 18.6937C842.301 16.3677 840.782 14.0417 837.144 14.0417H832.437C831.067 14.0417 830.297 14.8099 830.297 16.1756V27.6563C830.297 28.4886 830.939 29.1715 831.881 29.1715C832.801 29.1715 833.464 28.4886 833.464 27.6563L833.442 23.6444H836.032L838.663 28.3819C839.091 29.1075 839.99 29.4061 840.824 28.9794C841.659 28.5313 841.894 27.6349 841.445 26.9095L839.07 22.8976ZM833.442 16.8798H837.165C838.428 16.8798 839.22 17.6694 839.22 18.8431C839.22 19.9954 838.471 20.8491 837.208 20.8491H833.442V16.8798Z" fill="black"/>
<path d="M851.751 29.2568C854.875 29.2568 856.886 27.8485 857.571 25.5651C857.935 24.2633 857.164 23.3245 856.009 23.3245C855.303 23.3245 854.832 23.6872 854.554 24.4768C854.126 25.6719 853.077 26.4188 851.58 26.4188C849.205 26.4188 848.178 24.8182 848.178 21.4892C848.178 18.2243 849.226 16.6665 851.58 16.6665C853.056 16.6665 853.912 17.2854 854.447 18.7151C854.746 19.5261 855.239 19.8888 855.966 19.8888C857.079 19.8888 857.892 18.9925 857.549 17.7549C856.865 15.2368 854.875 13.8284 851.665 13.8284C847.258 13.8284 845.011 16.5172 845.011 21.4892C845.011 26.504 847.258 29.2568 851.751 29.2568Z" fill="black"/>
<path d="M866.964 29.2142C871.5 29.2142 873.746 26.4399 873.746 21.4892C873.746 16.4958 871.436 13.743 866.964 13.743C862.47 13.743 860.224 16.5384 860.202 21.4892C860.202 26.4613 862.492 29.2142 866.964 29.2142ZM866.964 26.3547C864.439 26.3547 863.348 24.7543 863.348 21.4892C863.348 18.1816 864.46 16.5811 866.942 16.5811C869.446 16.5811 870.623 18.1816 870.601 21.4892C870.601 24.7754 869.489 26.3547 866.964 26.3547Z" fill="black"/>
<path d="M893.665 16.5171C893.665 14.8313 892.617 13.8283 890.99 13.8283C889.664 13.8283 888.658 14.5539 888.166 16.2183L886.519 21.5745L885.427 25.437L884.379 21.5745L882.624 16.2183C882.132 14.6605 881.276 13.8283 879.778 13.8283C878.131 13.8283 877.104 14.8099 877.104 16.5171V27.6563C877.104 28.4886 877.703 29.1715 878.58 29.1715C879.457 29.1715 880.057 28.4886 880.057 27.6563L880.035 22.2788L879.885 16.5171L881.576 22.4069L883.373 27.6136C883.758 28.7659 884.486 29.1502 885.427 29.1502C886.305 29.1502 887.011 28.83 887.374 27.6563L889.086 22.4069L890.905 16.4744L890.734 22.2788V27.6563C890.734 28.4886 891.354 29.1715 892.21 29.1715C893.087 29.1715 893.686 28.4886 893.686 27.6563L893.665 16.5171Z" fill="black"/>
<path d="M754.105 23.5056C754.105 23.8614 753.965 24.2024 753.716 24.4538C753.466 24.7052 753.128 24.8466 752.775 24.8466C752.422 24.8466 752.083 24.7052 751.834 24.4538C751.584 24.2024 751.444 23.8614 751.444 23.5056V11.5268C751.444 11.1712 751.584 10.8301 751.834 10.5787C752.083 10.3272 752.422 10.1859 752.775 10.1859C753.128 10.1859 753.466 10.3272 753.716 10.5787C753.965 10.8301 754.105 11.1712 754.105 11.5268V23.5056ZM753.643 31.8057C753.467 31.9829 748.52 36.1384 739.449 36.1384C730.378 36.1384 725.463 32.0051 725.254 31.8277C725.123 31.7159 725.014 31.5789 724.935 31.4248C724.856 31.2704 724.808 31.1021 724.794 30.9291C724.779 30.7562 724.799 30.5821 724.852 30.4168C724.904 30.2516 724.989 30.0983 725.1 29.966C725.33 29.6983 725.655 29.533 726.005 29.5059C726.356 29.4789 726.702 29.5927 726.969 29.822C727.046 29.8775 731.466 33.4899 739.438 33.4899C747.409 33.4899 751.862 29.8553 751.906 29.822C752.177 29.5946 752.524 29.4824 752.875 29.5094C753.226 29.5363 753.553 29.7001 753.786 29.966C754.011 30.2299 754.123 30.5723 754.098 30.9187C754.073 31.2652 753.914 31.588 753.654 31.8167L753.643 31.8057ZM724.781 11.5268C724.801 11.17 724.96 10.8357 725.224 10.5969C725.488 10.3582 725.835 10.2343 726.189 10.2524C726.517 10.2712 726.827 10.4118 727.058 10.6471C727.29 10.8824 727.426 11.1958 727.442 11.5268V23.4836C727.442 23.8391 727.302 24.1802 727.053 24.4316C726.803 24.6832 726.465 24.8244 726.112 24.8244C725.759 24.8244 725.421 24.6832 725.171 24.4316C724.922 24.1802 724.781 23.8391 724.781 23.4836V11.5268ZM731.455 8.86725C731.475 8.51051 731.634 8.17621 731.898 7.93743C732.162 7.69863 732.509 7.57477 732.863 7.5929C733.191 7.61169 733.501 7.7523 733.732 7.98761C733.964 8.22293 734.1 8.53628 734.116 8.86725V26.5974C734.116 26.9531 733.976 27.2941 733.727 27.5455C733.477 27.7969 733.139 27.9381 732.786 27.9381C732.433 27.9381 732.095 27.7969 731.845 27.5455C731.596 27.2941 731.455 26.9531 731.455 26.5974V8.86725ZM738.162 8.20237C738.162 7.84676 738.303 7.50571 738.552 7.25426C738.802 7.0028 739.14 6.86153 739.493 6.86153C739.846 6.86153 740.184 7.0028 740.433 7.25426C740.683 7.50571 740.823 7.84676 740.823 8.20237V27.4839C740.823 27.8395 740.683 28.1805 740.433 28.4321C740.184 28.6835 739.846 28.8247 739.493 28.8247C739.14 28.8247 738.802 28.6835 738.552 28.4321C738.303 28.1805 738.162 27.8395 738.162 27.4839V8.20237ZM744.759 8.86725C744.759 8.51165 744.9 8.1706 745.149 7.91913C745.399 7.66768 745.737 7.52641 746.09 7.52641C746.443 7.52641 746.781 7.66768 747.031 7.91913C747.28 8.1706 747.42 8.51165 747.42 8.86725V26.5974C747.42 26.9531 747.28 27.2941 747.031 27.5455C746.781 27.7969 746.443 27.9381 746.09 27.9381C745.737 27.9381 745.399 27.7969 745.149 27.5455C744.9 27.2941 744.759 26.9531 744.759 26.5974V8.86725ZM754.468 1.55358H724.474C723.82 1.5492 723.172 1.67479 722.567 1.92316C721.961 2.17152 721.41 2.53779 720.946 3.00099C720.481 3.46418 720.112 4.0152 719.859 4.62252C719.605 5.22982 719.474 5.88147 719.471 6.54018V36.4598C719.474 37.1184 719.605 37.7702 719.859 38.3775C720.112 38.9847 720.481 39.5358 720.946 39.999C721.41 40.4621 721.961 40.8285 722.567 41.0768C723.172 41.3252 723.82 41.4507 724.474 41.4463H754.468C755.121 41.4507 755.768 41.3256 756.372 41.0778C756.977 40.8302 757.527 40.4649 757.992 40.0028C758.456 39.5409 758.826 38.9911 759.08 38.385C759.334 37.7791 759.466 37.1286 759.471 36.4709V6.54018C759.468 5.88242 759.336 5.23167 759.084 4.62509C758.832 4.0185 758.463 3.46798 758 3.00492C757.536 2.54187 756.987 2.17537 756.382 1.92635C755.778 1.67733 755.132 1.55066 754.479 1.55358" fill="black"/>
</g>
<g clip-path="url(#clip4_2_8855)">
<path d="M1062.92 1.5H962.915V41.5H1062.92V1.5Z" fill="#EC1D24"/>
<path d="M1059.99 32.3461V38.4231H1048.76V4.5769H1054.84V32.3461H1059.99ZM1011.92 21.1923C1011.38 21.4231 1010.92 21.5 1010.45 21.5V10.6538C1010.92 10.6538 1014.53 10.8077 1014.53 16.0384C1014.53 18.7308 1013.3 20.5 1011.92 21.1923ZM994.069 27.8077L995.761 13.3461L997.531 27.8077H994.069ZM1047.68 10.7308V4.5769H1030.53L1027.68 25.1923L1024.92 4.5769H1018.68L1019.38 10.0384C1018.68 8.65383 1016.15 4.5769 1010.53 4.5769H1004.3V34.5769L999.838 4.5769H991.684L986.992 35.6538V4.5769H979.3L976.531 22.0384L973.761 4.5769H965.992V38.4231H972.069V22.1154L974.915 38.4231H978.146L980.915 22.1154V38.4231H992.684L993.377 33.1923H998.146L998.838 38.4231H1010.38V27.4231L1011.76 27.1923L1014.76 38.4231H1020.76L1016.92 25.3461C1018.84 23.8846 1021.07 20.2692 1020.45 16.7308C1020.45 16.8077 1024.07 38.5 1024.07 38.5H1031.22L1036.07 7.8846V38.4231H1047.61V32.3461H1042.15V24.5769H1047.61V18.4231H1042.15V10.7308H1047.68Z" fill="#FEFEFE"/>
<path d="M962.915 1.5H985.992V41.5H962.915V1.5Z" fill="#EC1D24"/>
<path d="M987.146 38.4231V4.5769H979.3L976.531 22.0384L973.761 4.5769H965.992V38.4231H972.146V22.1154L974.915 38.4231H978.146L980.915 22.1154V38.4231H987.146Z" fill="#FEFEFE"/>
</g>
<g clip-path="url(#clip5_2_8855)">
<path d="M1218.94 30.7C1212.83 30.7 1208.87 26.33 1208.87 21.7818V21.2181C1208.87 16.5928 1212.83 12.3 1218.94 12.3C1225.05 12.3 1229.04 16.5928 1229.04 21.2181V21.7818C1229.04 26.33 1225.08 30.7 1218.94 30.7ZM1225.77 21.2663C1225.77 17.9515 1223.35 15.0029 1218.94 15.0029C1214.53 15.0029 1212.14 17.9563 1212.14 21.2663V21.6807C1212.14 24.9955 1214.57 28.0019 1218.94 28.0019C1223.31 28.0019 1225.77 24.9955 1225.77 21.6807V21.2663Z" fill="#3499CD"/>
<path d="M1149.94 30.0303L1147.66 25.7904H1137.53L1135.31 30.0303H1131.92L1141.24 12.9167H1143.93L1153.41 30.0303H1149.94ZM1142.5 16.2556L1138.75 23.4537H1146.39L1142.5 16.2556Z" fill="#010101"/>
<path d="M1168.11 30.7C1161.92 30.7 1159.05 27.3563 1159.05 22.9141V12.9167H1162.26V22.9622C1162.26 26.1229 1164.36 28.0019 1168.35 28.0019C1172.44 28.0019 1174.12 26.1229 1174.12 22.9622V12.9167H1177.36V22.8996C1177.36 27.1539 1174.64 30.7 1168.11 30.7Z" fill="#010101"/>
<path d="M1195.38 15.5907V30.0447H1192.14V15.5907H1184.6V12.9167H1202.91V15.5907H1195.38Z" fill="#010101"/>
<path d="M1257.88 30.0303V16.4868L1257.03 17.9804L1249.81 30.0255H1248.23L1241.08 17.9804L1240.23 16.4868V30.0303H1237.07V12.9167H1241.55L1248.34 24.6582L1249.15 26.1036L1249.95 24.6582L1256.69 12.9167H1261.11V30.0303H1257.88Z" fill="#010101"/>
<path d="M1285.59 30.0303L1283.31 25.7904H1273.19L1270.99 30.0303H1267.59L1276.92 12.9167H1279.6L1289.06 30.0303H1285.59ZM1278.16 16.2556L1274.41 23.4537H1282.04L1278.16 16.2556Z" fill="#010101"/>
<path d="M1302.11 15.5907V30.0447H1298.87V15.5907H1291.34V12.9167H1309.64V15.5907H1302.11Z" fill="#010101"/>
<path d="M1325.85 15.5907V30.0447H1322.61V15.5907H1315.08V12.9167H1333.39V15.5907H1325.85Z" fill="#010101"/>
<path d="M1341.36 30.0303V14.5355C1342.65 14.5355 1343.17 13.8417 1343.17 12.9167H1344.56V30.0303H1341.36Z" fill="#010101"/>
<path d="M1369.9 17.7492C1368.04 15.9925 1365.57 15.0081 1363.01 14.9981C1358.4 14.9981 1355.81 18.1346 1355.81 21.3964V21.7288C1355.81 24.9665 1358.42 27.9923 1363.24 27.9923C1365.76 27.9452 1368.17 26.9637 1370 25.2412L1371.94 27.2696C1369.52 29.5102 1366.32 30.7387 1363.01 30.7C1356.48 30.7 1352.52 26.4842 1352.52 21.8589V21.2952C1352.52 16.6699 1356.85 12.3 1363.16 12.3C1366.81 12.3 1370.13 13.8177 1371.9 15.716L1369.9 17.7492Z" fill="#010101"/>
<path d="M1221.07 18.255C1221.22 18.3448 1221.34 18.4619 1221.43 18.5994C1221.53 18.7369 1221.6 18.892 1221.63 19.0555C1221.66 19.2191 1221.66 19.3877 1221.63 19.5514C1221.6 19.7152 1221.53 19.8707 1221.44 20.0088L1218.49 24.5474C1218.4 24.6857 1218.28 24.8054 1218.15 24.8994C1218.01 24.9934 1217.86 25.06 1217.7 25.0954C1217.54 25.1307 1217.37 25.1341 1217.21 25.1054C1217.04 25.0767 1216.89 25.0164 1216.75 24.928C1216.47 24.7458 1216.27 24.4612 1216.2 24.1362C1216.14 23.8113 1216.2 23.4724 1216.38 23.1935L1219.33 18.6549C1219.51 18.376 1219.8 18.1797 1220.12 18.1093C1220.45 18.0388 1220.79 18.0999 1221.07 18.2791V18.255Z" fill="#010101"/>
</g>
<defs>
<clipPath id="clip0_2_8855">
<rect width="151.557" height="43" fill="white" transform="translate(0.0847778)"/>
</clipPath>
<clipPath id="clip1_2_8855">
<rect width="177.778" height="32" fill="white" transform="translate(220.642 5.5)"/>
</clipPath>
<clipPath id="clip2_2_8855">
<rect width="183.051" height="36" fill="white" transform="translate(467.42 3.5)"/>
</clipPath>
<clipPath id="clip3_2_8855">
<rect width="174.444" height="40" fill="white" transform="translate(719.471 1.5)"/>
</clipPath>
<clipPath id="clip4_2_8855">
<rect width="100" height="40" fill="white" transform="translate(962.915 1.5)"/>
</clipPath>
<clipPath id="clip5_2_8855">
<rect width="240" height="18.4" fill="white" transform="translate(1131.92 12.3)"/>
</clipPath>
</defs>
</svg>

